<svg class="theme-icon" width="48" height="48" viewBox="0 0 48 48" fill="none" xmlns="http://www.w3.org/2000/svg">
<path fill-rule="evenodd" clip-rule="evenodd" d="M24 45C35.598 45 45 35.598 45 24C45 12.402 35.598 3 24 3C12.402 3 3 12.402 3 24C3 35.598 12.402 45 24 45ZM24 48C37.2548 48 48 37.2548 48 24C48 10.7452 37.2548 0 24 0C10.7452 0 0 10.7452 0 24C0 37.2548 10.7452 48 24 48Z" fill="#142C73"></path>
<path d="M29.6352 31H19.3952V28.2L24.9152 23.2C25.6885 22.4667 26.0752 21.74 26.0752 21.02C26.0752 20.5133 25.9152 20.1067 25.5952 19.8C25.2752 19.48 24.8485 19.32 24.3152 19.32C23.7685 19.32 23.3152 19.52 22.9552 19.92C22.5952 20.3067 22.3818 20.82 22.3152 21.46L19.0952 21.02C19.2552 19.62 19.8418 18.5133 20.8552 17.7C21.8685 16.8733 23.0818 16.46 24.4952 16.46C25.9085 16.46 27.1152 16.8333 28.1152 17.58C29.1152 18.3267 29.6152 19.4 29.6152 20.8C29.6152 21.7067 29.4018 22.48 28.9752 23.12C28.5618 23.76 27.9485 24.44 27.1352 25.16L23.8552 28.08H29.6352V31Z" fill="#142C73"></path>
</svg>