<svg class="theme-icon" width="48" height="48" viewBox="0 0 48 48" fill="none" xmlns="http://www.w3.org/2000/svg">
<path d="M28.8758 29.42C29.4224 28.7133 29.6958 27.8666 29.6958 26.88C29.6958 26.0933 29.4424 25.4 28.9358 24.8C28.4291 24.1866 27.7758 23.7866 26.9758 23.6V23.54C27.6824 23.3533 28.2558 22.9866 28.6958 22.44C29.1358 21.88 29.3558 21.22 29.3558 20.46C29.3558 19.18 28.8624 18.1933 27.8758 17.5C26.9024 16.8066 25.7358 16.46 24.3758 16.46C23.1358 16.46 22.0291 16.7733 21.0558 17.4C20.0824 18.0266 19.4291 18.9133 19.0958 20.06L22.2158 20.78C22.3224 20.3 22.5491 19.92 22.8958 19.64C23.2558 19.3466 23.6758 19.2 24.1558 19.2C24.6491 19.2 25.0691 19.34 25.4158 19.62C25.7624 19.9 25.9358 20.28 25.9358 20.76C25.9358 21.88 25.1091 22.44 23.4558 22.44H22.4758V24.9H23.3758C24.1891 24.9 24.8691 25.0466 25.4158 25.34C25.9758 25.62 26.2558 26.0933 26.2558 26.76C26.2558 27.3733 26.0491 27.8266 25.6358 28.12C25.2224 28.4133 24.7424 28.56 24.1958 28.56C23.5824 28.56 23.0624 28.3933 22.6358 28.06C22.2091 27.7133 21.9291 27.2933 21.7958 26.8L18.6758 27.62C19.0358 28.8733 19.7291 29.8133 20.7558 30.44C21.7824 31.0666 22.9824 31.38 24.3558 31.38C25.2624 31.38 26.1091 31.2266 26.8958 30.92C27.6824 30.6133 28.3424 30.1133 28.8758 29.42Z" fill="#142C73"></path>
<path fill-rule="evenodd" clip-rule="evenodd" d="M48 24C48 37.2548 37.2548 48 24 48C10.7452 48 0 37.2548 0 24C0 10.7452 10.7452 0 24 0C37.2548 0 48 10.7452 48 24ZM45 24C45 35.598 35.598 45 24 45C12.402 45 3 35.598 3 24C3 12.402 12.402 3 24 3C35.598 3 45 12.402 45 24Z" fill="#142C73"></path>
</svg>