<svg class="theme-icon" width="48" height="48" viewBox="0 0 48 48" fill="none" xmlns="http://www.w3.org/2000/svg">
<path fill-rule="evenodd" clip-rule="evenodd" d="M24 45C35.598 45 45 35.598 45 24C45 12.402 35.598 3 24 3C12.402 3 3 12.402 3 24C3 35.598 12.402 45 24 45ZM24 48C37.2548 48 48 37.2548 48 24C48 10.7452 37.2548 0 24 0C10.7452 0 0 10.7452 0 24C0 37.2548 10.7452 48 24 48Z" fill="#142C73"></path>
<path d="M30.2752 28.24H28.3352V31H25.1952V28.24H18.5352V25.42L24.2952 16.84H28.3152V25.52H30.2752V28.24ZM25.2152 25.52V20.28H25.1552L21.7952 25.52H25.2152Z" fill="#142C73"></path>
</svg>