<svg class="theme-icon" width="48" height="48" viewBox="0 0 48 48" fill="none" xmlns="http://www.w3.org/2000/svg">
<path fill-rule="evenodd" clip-rule="evenodd" d="M24 45C35.598 45 45 35.598 45 24C45 12.402 35.598 3 24 3C12.402 3 3 12.402 3 24C3 35.598 12.402 45 24 45ZM24 48C37.2548 48 48 37.2548 48 24C48 10.7452 37.2548 0 24 0C10.7452 0 0 10.7452 0 24C0 37.2548 10.7452 48 24 48Z" fill="#142C73"></path>
<path d="M29.6752 26.32C29.6752 27.9467 29.1418 29.2 28.0752 30.08C27.0085 30.9467 25.7218 31.38 24.2152 31.38C22.9085 31.38 21.7685 31.06 20.7952 30.42C19.8218 29.7667 19.1685 28.8867 18.8352 27.78L21.8952 26.84C22.0418 27.3467 22.3218 27.76 22.7352 28.08C23.1618 28.3867 23.6418 28.54 24.1752 28.54C24.7752 28.54 25.2752 28.36 25.6752 28C26.0885 27.64 26.2952 27.1333 26.2952 26.48C26.2952 25.7067 26.0152 25.1533 25.4552 24.82C24.8952 24.4867 24.2085 24.32 23.3952 24.32C22.2352 24.32 21.0818 24.5267 19.9352 24.94L20.2752 16.84H28.9552V19.72H23.2552L23.1352 21.96C23.5218 21.8667 23.9952 21.82 24.5552 21.82C26.0485 21.82 27.2752 22.2133 28.2352 23C29.1952 23.7733 29.6752 24.88 29.6752 26.32Z" fill="#142C73"></path>
</svg>