<svg class="theme-icon" width="48" height="48" viewBox="0 0 48 48" fill="none" xmlns="http://www.w3.org/2000/svg">
<g clip-path="url(#clip0_1894_6220)">
<path fill-rule="evenodd" clip-rule="evenodd" d="M38.8417 4.23156C38.6346 3.88441 38.2962 3.63554 37.9031 3.54132C37.51 3.4471 37.0955 3.51553 36.7536 3.73108L31.8258 6.8374L26.9685 5.05183C25.6753 4.42016 24.0958 4.42033 22.7507 5.19773L15.6077 9.32614L10.256 6.20434C9.907 6.00075 9.49063 5.94657 9.10114 6.05406C8.71166 6.16155 8.38201 6.42162 8.18683 6.77539L0.18683 21.2754C-0.196376 21.9699 0.0274565 22.8428 0.697618 23.2672L3.5266 25.0589L1.13444 29.2023C-0.0710949 31.2903 0.644324 33.9603 2.73237 35.1658C3.68174 35.7139 4.75141 35.8649 5.74904 35.6704C6.07899 36.6329 6.74502 37.4851 7.69543 38.0338C8.64525 38.5821 9.71548 38.733 10.7135 38.5381C11.0437 39.4997 11.7095 40.3509 12.6591 40.8992C13.609 41.4476 14.6794 41.5985 15.6775 41.4035C16.0079 42.3645 16.6734 43.2151 17.6226 43.7631C19.7106 44.9687 22.3806 44.2533 23.5862 42.1652L25.0085 39.7016L29.2881 42.1724C31.2976 43.3326 33.8672 42.6441 35.0274 40.6346C35.2384 40.269 35.3883 39.8849 35.4802 39.4941C37.4407 40.4332 39.8246 39.7176 40.9297 37.8035C41.1963 37.3417 41.3653 36.8503 41.4431 36.3532C43.0829 36.5759 44.7698 35.8117 45.6485 34.2898C46.4947 32.8241 46.3574 31.0604 45.4413 29.763C45.8587 29.4391 46.2215 29.0305 46.502 28.5447C47.5581 26.7154 47.0823 24.4219 45.4724 23.1501L47.5619 21.0607C48.0476 20.575 48.1413 19.8215 47.7894 19.2316L38.8417 4.23156ZM38.0117 22.2556L42.2295 24.7862C42.3839 24.8789 42.5497 24.941 42.719 24.9734L43.4641 25.4036C44.0388 25.7353 44.2357 26.4701 43.9039 27.0447C43.5788 27.6078 42.8668 27.8082 42.2976 27.5039L36.3422 24.0655L34.861 26.6752L40.7627 30.0825L40.7923 30.0994L40.8277 30.1193L42.6106 31.1487C43.1853 31.4804 43.3821 32.2152 43.0504 32.7898C42.7186 33.3645 41.9838 33.5613 41.4092 33.2296L39.4495 32.0982L39.411 32.0754L39.3919 32.0643L33.6755 28.7639L32.1944 31.3735L37.9226 34.6807C38.4734 35.0205 38.6574 35.7392 38.3316 36.3035C37.9999 36.8781 37.2651 37.075 36.6905 36.7433L31.0086 33.4628L29.5277 36.0721L31.9895 37.4934C32.5642 37.8252 32.761 38.5599 32.4293 39.1346C32.0975 39.7092 31.3628 39.9061 30.7881 39.5743L26.3426 37.0077C26.7604 35.1879 25.9704 33.2334 24.269 32.2512C23.6668 31.9035 23.0162 31.7156 22.3663 31.6743C22.3738 30.1579 21.59 28.6803 20.1828 27.8678C19.6457 27.5577 19.0701 27.3748 18.4908 27.3095C18.6622 25.6496 17.8689 23.9661 16.3303 23.0778C14.7921 22.1897 12.9381 22.3441 11.5864 23.3217C11.2401 22.8522 10.7936 22.4448 10.256 22.1344C8.61159 21.185 6.60621 21.427 5.23948 22.5927L3.49568 21.4883L10.0714 9.56977L12.813 11.169C11.3919 12.669 11.0583 14.9804 12.143 16.8611C13.4642 19.1519 16.3908 19.9388 18.6816 18.6177L25.4821 14.7378L37.5326 21.9681L37.528 21.9763L38.0117 22.2556ZM42.8151 21.5648L39.5336 19.6701L26.2729 11.7138C25.808 11.4348 25.2288 11.4285 24.7579 11.6971L17.1916 16.0139L17.1843 16.018C16.3297 16.512 15.2361 16.2195 14.7417 15.3623C14.2468 14.5041 14.5412 13.4076 15.3967 12.9131L24.2519 7.79511C24.7095 7.53064 25.2494 7.53538 25.6905 7.76702C25.7743 7.81106 25.8613 7.84664 25.9502 7.87376L31.4837 9.90789C31.9206 10.0685 32.4073 10.0172 32.8011 9.76893L37.0528 7.08875L44.6146 19.7653L42.8151 21.5648ZM18.6023 39.3362L18.6227 39.3013L20.928 35.3083C21.3158 34.6868 22.1297 34.4801 22.769 34.8493C23.4222 35.2264 23.646 36.0616 23.2689 36.7147L20.9881 40.6652C20.611 41.3184 19.7758 41.5422 19.1226 41.1651C18.4816 40.795 18.2541 39.9836 18.6023 39.3362ZM18.3487 33.7758L19.1827 32.3314C19.5598 31.6782 19.336 30.843 18.6828 30.4659C18.0296 30.0888 17.1944 30.3126 16.8173 30.9658L13.6593 36.4357C13.2822 37.0888 13.506 37.924 14.1591 38.3011C14.8004 38.6714 15.6171 38.4624 16.0035 37.8366L16.0247 37.7996L18.3055 33.8491L18.326 33.8139L18.3487 33.7758ZM6.89056 25.2324C7.26766 24.5792 8.10287 24.3554 8.75604 24.7325C9.40921 25.1096 9.633 25.9448 9.2559 26.598L6.09786 32.0679C5.72075 32.7211 4.88554 32.9448 4.23237 32.5677C3.5792 32.1906 3.35541 31.3554 3.73252 30.7023L6.89056 25.2324ZM12.9648 26.1757C13.3419 25.5226 14.1771 25.2988 14.8303 25.6759C15.4834 26.053 15.7072 26.8882 15.3301 27.5414L11.0609 34.9358C10.6838 35.589 9.8486 35.8128 9.19543 35.4357C8.54226 35.0586 8.31846 34.2234 8.69557 33.5702L12.9648 26.1757Z" fill="#142C73"></path>
</g>
<defs>
<clipPath id="clip0_1894_6220">
<rect width="48" height="48" fill="white"></rect>
</clipPath>
</defs>
</svg>