<svg class="theme-icon" width="48" height="48" viewBox="0 0 48 48" fill="none" xmlns="http://www.w3.org/2000/svg">
<g clip-path="url(#clip0_1894_6201)">
<path fill-rule="evenodd" clip-rule="evenodd" d="M38 5C38 2.23858 40.2386 0 43 0C45.7614 0 48 2.23858 48 5V43C48 45.7614 45.7614 48 43 48C40.2386 48 38 45.7614 38 43V40.1253L19.999 34.875V46H9.99902V34C4.47662 33.9995 0 29.5225 0 24C0 18.4772 4.47715 14 10 14H18.599L38 7.93719V5ZM43 3C44.1046 3 45 3.89543 45 5V43C45 44.1046 44.1046 45 43 45C41.8954 45 41 44.1046 41 43V5C41 3.89543 41.8954 3 43 3ZM20 31.7503V16.7053L37.999 11.0806V37L20 31.7503ZM16.999 17V31H10C6.13401 31 3 27.866 3 24C3 20.134 6.13401 17 10 17H16.999ZM16.999 34H12.999V43H16.999V34Z" fill="#142C73"></path>
</g>
<defs>
<clipPath id="clip0_1894_6201">
<rect width="48" height="48" fill="white"></rect>
</clipPath>
</defs>
</svg>