<svg width="48" height="48" viewBox="0 0 48 48" fill="none" xmlns="http://www.w3.org/2000/svg"> <path fill-rule="evenodd" clip-rule="evenodd" d="M38 2L29 5.5L20 2V11C20 14.2592 21.7325 17.1138 24.3267 18.6931C22.2607 20.2751 20.546 22.8735 19.4252 26.0928L18.4787 25.5221L14.0004 18.0957L9.52209 25.5221L2.0957 30.0004L9.52209 34.4787L14.0004 41.9051L18.002 35.2693C18.0606 40.289 19.3859 44.8037 21.4789 48H38.8971C44.3669 44.5461 48 38.4473 48 31.5C48 26.7434 46.2969 22.3845 43.4672 19H39.2708C42.7792 22.0258 45 26.5035 45 31.5C45 37.0129 42.2964 41.8943 38.1427 44.8907C39.3157 42.0405 40 38.6114 40 34.9219C40 27.7463 37.4117 21.5557 33.6733 18.6931C36.2675 17.1138 38 14.2592 38 11V2ZM25.9051 30.0004L22.0595 27.6814C22.5173 26.2206 23.1036 24.9183 23.7786 23.8185C25.4655 21.0702 27.3966 20 29 20C30.6034 20 32.5345 21.0702 34.2214 23.8185C35.8777 26.5172 37 30.4353 37 34.9219C37 38.8745 36.1294 42.3798 34.7946 45H30.5V36H27.5V45H23.2054C21.8706 42.3798 21 38.8745 21 34.9219C21 34.2381 21.0261 33.5675 21.0761 32.9125L25.9051 30.0004ZM35 11C35 14.3137 32.3137 17 29 17C25.6863 17 23 14.3137 23 11V6.38553L29 8.71887L35 6.38553V11ZM14.0004 23.9051L11.7075 27.7075L7.90514 30.0004L11.7075 32.2933L14.0004 36.0957L16.2933 32.2933L20.0957 30.0004L16.2933 27.7075L14.0004 23.9051Z" fill="#142C73"></path> <path d="M6.19281 8.80719L4.5 6L2.80719 8.80719L0 10.5L2.80719 12.1928L4.5 15L6.19281 12.1928L9 10.5L6.19281 8.80719Z" fill="#142C73"></path> </svg>