<svg class="theme-icon" width="20" height="20" viewBox="0 0 20 20" fill="none" xmlns="http://www.w3.org/2000/svg">
<g clip-path="url(#clip0_1892_5494)">
<path d="M9.252 13.398L13.7258 8.68875L12.2758 7.31125L9.1496 10.602L7.67347 9.26006L6.32812 10.7399L9.252 13.398Z" fill="#142C73"></path>
<path fill-rule="evenodd" clip-rule="evenodd" d="M2.26933 5.69829C1.85802 3.08809 4.37577 0.845426 6.94007 1.72305C8.31835 -0.574349 11.6811 -0.574349 13.0594 1.72305C15.6237 0.845427 18.1415 3.08808 17.7301 5.69829C20.2327 6.67145 20.7858 10.005 18.7838 11.7591C20.0602 14.0755 18.4477 17.0425 15.7441 17.0992C15.2385 19.7067 12.0988 20.919 9.99973 19.2199C7.90067 20.919 4.76097 19.7067 4.25534 17.0992C1.55173 17.0425 -0.0607274 14.0755 1.21571 11.7591C-0.786283 10.005 -0.233265 6.67145 2.26933 5.69829ZM8.56729 2.91729C9.14009 1.69424 10.8594 1.69424 11.4322 2.91729C11.8039 3.71092 12.7368 4.05464 13.5254 3.68853C14.7408 3.12432 16.0579 4.24302 15.7201 5.55265C15.5008 6.40244 15.9972 7.27276 16.8339 7.50547C18.1232 7.86411 18.4217 9.57807 17.3313 10.3615C16.6238 10.8698 16.4514 11.8595 16.9445 12.5821C17.7045 13.6958 16.8448 15.203 15.5121 15.0937C14.6473 15.0227 13.8868 15.6687 13.8056 16.5431C13.6806 17.8907 12.065 18.486 11.1135 17.535C10.4961 16.9179 9.50335 16.9179 8.88594 17.535C7.93445 18.486 6.31884 17.8907 6.19382 16.5431C6.1127 15.6687 5.3522 15.0227 4.48739 15.0937C3.15464 15.203 2.29499 13.6958 3.05495 12.5821C3.54807 11.8595 3.37568 10.8698 2.66813 10.3615C1.57773 9.57807 1.87628 7.86411 3.16561 7.50547C4.00225 7.27276 4.49863 6.40245 4.27941 5.55265C3.94156 4.24302 5.25862 3.12432 6.47404 3.68853C7.26271 4.05464 8.19561 3.71092 8.56729 2.91729Z" fill="#142C73"></path>
</g>
<defs>
<clipPath id="clip0_1892_5494">
<rect width="20" height="20" fill="white"></rect>
</clipPath>
</defs>
</svg>