<svg width="48" height="48" viewBox="0 0 48 48" fill="none" xmlns="http://www.w3.org/2000/svg"> <circle cx="37.5" cy="14.5" r="1.5" fill="#142C73"></circle> <circle cx="37.5" cy="14.5" r="1.5" fill="#142C73"></circle> <path fill-rule="evenodd" clip-rule="evenodd" d="M37.5 0C35.0707 0 33.0019 1.5758 32.2569 3.77589C30.0752 4.52212 28.5 6.59995 28.5 9.05715C28.5 11.0171 29.5042 12.736 31.0129 13.7286C31.0043 13.8674 30.9999 14.0073 30.9999 14.1484V19.2988C30.3879 20.3222 29.1951 21.1516 27.6905 21.6091H27.4328C25.8362 19.2376 23.1715 17.6842 20.1538 17.6842H6V18.1389C6 19.0141 6.06166 19.8745 6.18077 20.7158C6.22328 21.0161 6.27312 21.3139 6.33008 21.6091H1C1 22.6258 1.0732 23.6388 1.2181 24.6407C1.47256 26.4002 1.94813 28.1252 2.63659 29.7748C3.71707 32.3636 5.30074 34.7159 7.2972 36.6973C9.29366 38.6787 11.6638 40.2505 14.2723 41.3228C16.1663 42.1014 18.159 42.6057 20.1893 42.8235L18.7257 48H21.8457L23.2783 42.9331C23.7517 42.9161 24.2239 42.8835 24.6941 42.8357L26.1543 48H29.2743L27.6687 42.3213C28.7097 42.0654 29.7323 41.732 30.7277 41.3228C33.3362 40.2505 35.7063 38.6787 37.7028 36.6973C39.6993 34.7159 41.2829 32.3636 42.3634 29.7748C43.3335 27.4504 43.8809 24.9762 43.9826 22.4669H43.9999V16.6737H47V13.6421H44.1146C45.5521 12.638 46.5 10.9614 46.5 9.05715C46.5 6.59994 44.9248 4.52212 42.7431 3.77589C41.9982 1.5758 39.9293 0 37.5 0ZM37.4999 7.57993C35.5168 7.57993 33.7411 8.47734 32.5489 9.89221C32.33 10.0716 32.121 10.2626 31.9227 10.4642C31.6548 10.0601 31.5 9.57589 31.5 9.05715C31.5 7.77454 32.4506 6.70265 33.6955 6.53505L34.8313 6.38216L34.9841 5.23466C35.1488 3.9971 36.2085 3.03158 37.5 3.03158C38.7915 3.03158 39.8512 3.9971 40.0159 5.23467L40.1687 6.38216L41.3045 6.53506C42.5494 6.70265 43.5 7.77454 43.5 9.05715C43.5 9.57589 43.3452 10.0601 43.0773 10.4642C42.8787 10.2623 42.6694 10.071 42.4502 9.89144C41.258 8.47701 39.4826 7.57993 37.4999 7.57993ZM7.19609 24.6407H4.25545C4.48516 25.9943 4.86858 27.3215 5.4008 28.5967C6.32614 30.8139 7.68392 32.832 9.39931 34.5344C11.1148 36.237 13.1543 37.5904 15.4028 38.5147C17.6513 39.4391 20.0631 39.9155 22.5 39.9155C24.9369 39.9155 27.3487 39.4391 29.5972 38.5147C31.8457 37.5904 33.8852 36.237 35.6007 34.5344C37.3161 32.832 38.6739 30.8139 39.5992 28.5967C40.43 26.6061 40.8981 24.4889 40.9851 22.3428L40.9999 21.9797V14.1484C40.9999 12.195 39.4329 10.6115 37.4999 10.6115C35.5669 10.6115 33.9999 12.195 33.9999 14.1484V20.1437L33.5674 20.8668C32.4858 22.6754 30.6275 23.8496 28.7107 24.4635C28.8995 25.2028 29 25.9788 29 26.7789V29.9621C29 33.227 26.4256 35.8737 23.25 35.8737C15.9555 35.8737 9.71857 31.2188 7.19609 24.6407ZM23.25 32.8421C16.271 32.8421 10.401 27.6404 9.21745 20.7158H20.1538C23.334 20.7158 26 23.3809 26 26.7789V29.9621C26 31.6022 24.7202 32.8421 23.25 32.8421Z" fill="#142C73"></path> <path fill-rule="evenodd" clip-rule="evenodd" d="M37.5 0C35.0707 0 33.0019 1.5758 32.2569 3.77589C30.0752 4.52212 28.5 6.59995 28.5 9.05715C28.5 11.0171 29.5042 12.736 31.0129 13.7286C31.0043 13.8674 30.9999 14.0073 30.9999 14.1484V19.2988C30.3879 20.3222 29.1951 21.1516 27.6905 21.6091H27.4328C25.8362 19.2376 23.1715 17.6842 20.1538 17.6842H6V18.1389C6 19.0141 6.06166 19.8745 6.18077 20.7158C6.22328 21.0161 6.27312 21.3139 6.33008 21.6091H1C1 22.6258 1.0732 23.6388 1.2181 24.6407C1.47256 26.4002 1.94813 28.1252 2.63659 29.7748C3.71707 32.3636 5.30074 34.7159 7.2972 36.6973C9.29366 38.6787 11.6638 40.2505 14.2723 41.3228C16.1663 42.1014 18.159 42.6057 20.1893 42.8235L18.7257 48H21.8457L23.2783 42.9331C23.7517 42.9161 24.2239 42.8835 24.6941 42.8357L26.1543 48H29.2743L27.6687 42.3213C28.7097 42.0654 29.7323 41.732 30.7277 41.3228C33.3362 40.2505 35.7063 38.6787 37.7028 36.6973C39.6993 34.7159 41.2829 32.3636 42.3634 29.7748C43.3335 27.4504 43.8809 24.9762 43.9826 22.4669H43.9999V16.6737H47V13.6421H44.1146C45.5521 12.638 46.5 10.9614 46.5 9.05715C46.5 6.59994 44.9248 4.52212 42.7431 3.77589C41.9982 1.5758 39.9293 0 37.5 0ZM37.4999 7.57993C35.5168 7.57993 33.7411 8.47734 32.5489 9.89221C32.33 10.0716 32.121 10.2626 31.9227 10.4642C31.6548 10.0601 31.5 9.57589 31.5 9.05715C31.5 7.77454 32.4506 6.70265 33.6955 6.53505L34.8313 6.38216L34.9841 5.23466C35.1488 3.9971 36.2085 3.03158 37.5 3.03158C38.7915 3.03158 39.8512 3.9971 40.0159 5.23467L40.1687 6.38216L41.3045 6.53506C42.5494 6.70265 43.5 7.77454 43.5 9.05715C43.5 9.57589 43.3452 10.0601 43.0773 10.4642C42.8787 10.2623 42.6694 10.071 42.4502 9.89144C41.258 8.47701 39.4826 7.57993 37.4999 7.57993ZM7.19609 24.6407H4.25545C4.48516 25.9943 4.86858 27.3215 5.4008 28.5967C6.32614 30.8139 7.68392 32.832 9.39931 34.5344C11.1148 36.237 13.1543 37.5904 15.4028 38.5147C17.6513 39.4391 20.0631 39.9155 22.5 39.9155C24.9369 39.9155 27.3487 39.4391 29.5972 38.5147C31.8457 37.5904 33.8852 36.237 35.6007 34.5344C37.3161 32.832 38.6739 30.8139 39.5992 28.5967C40.43 26.6061 40.8981 24.4889 40.9851 22.3428L40.9999 21.9797V14.1484C40.9999 12.195 39.4329 10.6115 37.4999 10.6115C35.5669 10.6115 33.9999 12.195 33.9999 14.1484V20.1437L33.5674 20.8668C32.4858 22.6754 30.6275 23.8496 28.7107 24.4635C28.8995 25.2028 29 25.9788 29 26.7789V29.9621C29 33.227 26.4256 35.8737 23.25 35.8737C15.9555 35.8737 9.71857 31.2188 7.19609 24.6407ZM23.25 32.8421C16.271 32.8421 10.401 27.6404 9.21745 20.7158H20.1538C23.334 20.7158 26 23.3809 26 26.7789V29.9621C26 31.6022 24.7202 32.8421 23.25 32.8421Z" fill="#142C73"></path> </svg>