<svg class="theme-icon" width="20" height="20" viewBox="0 0 20 20" fill="none" xmlns="http://www.w3.org/2000/svg">
<path d="M9 6H11V8H9V6Z" fill="#142C73"></path>
<path d="M9 10H11V14H9V10Z" fill="#142C73"></path>
<path fill-rule="evenodd" clip-rule="evenodd" d="M6.94025 1.7225C4.37589 0.845158 1.85807 3.08711 2.26939 5.69648C-0.233271 6.66933 -0.786303 10.0018 1.21574 11.7554C-0.0607289 14.0711 1.55177 17.0371 4.25545 17.0938C4.7611 19.7004 7.90088 20.9123 10 19.2138C12.0991 20.9123 15.2389 19.7004 15.7445 17.0938C18.4482 17.0371 20.0607 14.0711 18.7843 11.7554C20.7863 10.0018 20.2333 6.66933 17.7306 5.69648C18.1419 3.0871 15.6241 0.845158 13.0597 1.7225C11.6814 -0.574167 8.31857 -0.574167 6.94025 1.7225ZM11.4325 2.91637C10.8597 1.6937 9.14033 1.6937 8.56752 2.91637C8.19582 3.70974 7.26291 4.05335 6.47421 3.68736C5.25876 3.12333 3.94167 4.24168 4.27952 5.55088C4.49875 6.40041 4.00236 7.27045 3.1657 7.50309C1.87633 7.86162 1.57777 9.57503 2.6682 10.3582C3.37577 10.8664 3.54817 11.8557 3.05503 12.5781C2.29505 13.6915 3.15472 15.1982 4.48751 15.0889C5.35234 15.0179 6.11286 15.6637 6.19399 16.5379C6.31901 17.885 7.93466 18.4801 8.88618 17.5294C9.5036 16.9125 10.4964 16.9125 11.1138 17.5294C12.0653 18.4801 13.681 17.885 13.806 16.5379C13.8871 15.6637 14.6477 15.0179 15.5125 15.0889C16.8453 15.1982 17.7049 13.6915 16.945 12.5781C16.4518 11.8557 16.6242 10.8664 17.3318 10.3582C18.4222 9.57503 18.1237 7.86162 16.8343 7.50309C15.9976 7.27045 15.5012 6.40041 15.7205 5.55088C16.0583 4.24168 14.7412 3.12333 13.5258 3.68736C12.7371 4.05335 11.8042 3.70974 11.4325 2.91637Z" fill="#142C73"></path>
</svg>