<svg class="theme-icon" width="48" height="48" viewBox="0 0 48 48" fill="none" xmlns="http://www.w3.org/2000/svg">
<path d="M13 7.5C13 8.32843 12.3284 9 11.5 9C10.6716 9 10 8.32843 10 7.5C10 6.67157 10.6716 6 11.5 6C12.3284 6 13 6.67157 13 7.5Z" fill="#142C73"></path>
<path d="M11.5 15C12.3284 15 13 14.3284 13 13.5C13 12.6716 12.3284 12 11.5 12C10.6716 12 10 12.6716 10 13.5C10 14.3284 10.6716 15 11.5 15Z" fill="#142C73"></path>
<path d="M13 19.5C13 20.3284 12.3284 21 11.5 21C10.6716 21 10 20.3284 10 19.5C10 18.6716 10.6716 18 11.5 18C12.3284 18 13 18.6716 13 19.5Z" fill="#142C73"></path>
<path d="M17.5 9C18.3284 9 19 8.32843 19 7.5C19 6.67157 18.3284 6 17.5 6C16.6716 6 16 6.67157 16 7.5C16 8.32843 16.6716 9 17.5 9Z" fill="#142C73"></path>
<path d="M19 13.5C19 14.3284 18.3284 15 17.5 15C16.6716 15 16 14.3284 16 13.5C16 12.6716 16.6716 12 17.5 12C18.3284 12 19 12.6716 19 13.5Z" fill="#142C73"></path>
<path d="M17.5 21C18.3284 21 19 20.3284 19 19.5C19 18.6716 18.3284 18 17.5 18C16.6716 18 16 18.6716 16 19.5C16 20.3284 16.6716 21 17.5 21Z" fill="#142C73"></path>
<path d="M25 7.5C25 8.32843 24.3284 9 23.5 9C22.6716 9 22 8.32843 22 7.5C22 6.67157 22.6716 6 23.5 6C24.3284 6 25 6.67157 25 7.5Z" fill="#142C73"></path>
<path d="M23.5 15C24.3284 15 25 14.3284 25 13.5C25 12.6716 24.3284 12 23.5 12C22.6716 12 22 12.6716 22 13.5C22 14.3284 22.6716 15 23.5 15Z" fill="#142C73"></path>
<path d="M25 19.5C25 20.3284 24.3284 21 23.5 21C22.6716 21 22 20.3284 22 19.5C22 18.6716 22.6716 18 23.5 18C24.3284 18 25 18.6716 25 19.5Z" fill="#142C73"></path>
<path d="M29.5 9C30.3284 9 31 8.32843 31 7.5C31 6.67157 30.3284 6 29.5 6C28.6716 6 28 6.67157 28 7.5C28 8.32843 28.6716 9 29.5 9Z" fill="#142C73"></path>
<path d="M31 13.5C31 14.3284 30.3284 15 29.5 15C28.6716 15 28 14.3284 28 13.5C28 12.6716 28.6716 12 29.5 12C30.3284 12 31 12.6716 31 13.5Z" fill="#142C73"></path>
<path d="M29.5 21C30.3284 21 31 20.3284 31 19.5C31 18.6716 30.3284 18 29.5 18C28.6716 18 28 18.6716 28 19.5C28 20.3284 28.6716 21 29.5 21Z" fill="#142C73"></path>
<path d="M37 7.5C37 8.32843 36.3284 9 35.5 9C34.6716 9 34 8.32843 34 7.5C34 6.67157 34.6716 6 35.5 6C36.3284 6 37 6.67157 37 7.5Z" fill="#142C73"></path>
<path d="M35.5 15C36.3284 15 37 14.3284 37 13.5C37 12.6716 36.3284 12 35.5 12C34.6716 12 34 12.6716 34 13.5C34 14.3284 34.6716 15 35.5 15Z" fill="#142C73"></path>
<path d="M37 19.5C37 20.3284 36.3284 21 35.5 21C34.6716 21 34 20.3284 34 19.5C34 18.6716 34.6716 18 35.5 18C36.3284 18 37 18.6716 37 19.5Z" fill="#142C73"></path>
<path fill-rule="evenodd" clip-rule="evenodd" d="M28 27H36C39.866 27 43 23.866 43 20V7C43 3.13401 39.866 0 36 0H11C7.13401 0 4 3.13401 4 7V20C4 23.866 7.13401 27 11 27H19V43.5C19 45.9853 21.0147 48 23.5 48C25.9853 48 28 45.9853 28 43.5V27ZM36 3H11C8.79086 3 7 4.79086 7 7V20C7 22.2091 8.79086 24 11 24H36C38.2091 24 40 22.2091 40 20V7C40 4.79086 38.2091 3 36 3ZM25 27H22V43.5C22 44.3284 22.6716 45 23.5 45C24.3284 45 25 44.3284 25 43.5V27Z" fill="#142C73"></path>
</svg>