<svg class="theme-icon" width="48" height="48" viewBox="0 0 48 48" fill="none" xmlns="http://www.w3.org/2000/svg">
<path fill-rule="evenodd" clip-rule="evenodd" d="M27.5698 4.40892C21.6092 11.2579 18 20.2075 18 30C18 33.3137 20.6863 36 24 36C27.3137 36 30 33.3137 30 30C30 29.2334 29.8562 28.5004 29.5942 27.8265C29.2024 24.9403 29 21.9939 29 19.0002C29 14.4803 29.4613 10.0681 30.3395 5.80828C30.7249 3.93861 31.1906 2.09826 31.7329 0.291016C30.2446 1.55798 28.8528 2.9348 27.5698 4.40892ZM26.6693 28.5823L26.6215 28.2301C26.2115 25.2105 26 22.1292 26 19.0002C26 16.2604 26.1622 13.5577 26.4776 10.9012C23.0056 16.4375 21 22.9839 21 30C21 31.6569 22.3431 33 24 33C25.6569 33 27 31.6569 27 30C27 29.6112 26.9275 29.2465 26.7981 28.9136L26.6693 28.5823Z" fill="#142C73"></path>
<path d="M12 30C12 36.6274 17.3726 42 24 42C30.6274 42 36 36.6274 36 30C36 29.6632 35.9861 29.3297 35.9589 29H48V26H32.0645C32.6633 27.205 33 28.5632 33 30C33 34.9706 28.9706 39 24 39C19.0294 39 15 34.9706 15 30C15 28.5632 15.3367 27.205 15.9355 26H0V29H12.0411C12.0139 29.3297 12 29.6632 12 30Z" fill="#142C73"></path>
<path fill-rule="evenodd" clip-rule="evenodd" d="M45 43.5C45 45.9853 42.9853 48 40.5 48C38.0147 48 36 45.9853 36 43.5C36 41.0147 38.0147 39 40.5 39C42.9853 39 45 41.0147 45 43.5ZM42 43.5C42 44.3284 41.3284 45 40.5 45C39.6716 45 39 44.3284 39 43.5C39 42.6716 39.6716 42 40.5 42C41.3284 42 42 42.6716 42 43.5Z" fill="#142C73"></path>
<path fill-rule="evenodd" clip-rule="evenodd" d="M4.5 42C6.98528 42 9 39.9853 9 37.5C9 35.0147 6.98528 33 4.5 33C2.01472 33 0 35.0147 0 37.5C0 39.9853 2.01472 42 4.5 42ZM4.5 39C5.32843 39 6 38.3284 6 37.5C6 36.6716 5.32843 36 4.5 36C3.67157 36 3 36.6716 3 37.5C3 38.3284 3.67157 39 4.5 39Z" fill="#142C73"></path>
<path d="M41.5 36C42.3284 36 43 35.3284 43 34.5C43 33.6716 42.3284 33 41.5 33C40.6716 33 40 33.6716 40 34.5C40 35.3284 40.6716 36 41.5 36Z" fill="#142C73"></path>
<path d="M14 46.5C14 47.3284 13.3284 48 12.5 48C11.6716 48 11 47.3284 11 46.5C11 45.6716 11.6716 45 12.5 45C13.3284 45 14 45.6716 14 46.5Z" fill="#142C73"></path>
</svg>