<svg class="theme-icon" width="48" height="48" viewBox="0 0 48 48" fill="none" xmlns="http://www.w3.org/2000/svg">
<path fill-rule="evenodd" clip-rule="evenodd" d="M30.0934 9.46356L30.1707 9.48096C30.6451 9.58784 31.0865 9.68719 31.498 9.77344C31.9094 9.68719 32.3508 9.58783 32.8253 9.48096L32.9025 9.46356C34.8189 9.03181 37.2458 8.48507 39.5097 8.50031C41.8186 8.51585 44.3086 9.12161 45.8884 11.371C47.7789 14.0628 47.6878 17.5912 47.1971 20.3517C46.696 23.1701 45.7032 25.602 45.3072 26.4667L45.3061 26.4706C45.3017 26.4849 45.2851 26.539 45.264 26.6508C45.2352 26.8036 45.2079 27.0093 45.1825 27.2774C45.1314 27.8183 45.0979 28.5035 45.0572 29.3433L45.0529 29.4319C44.8946 32.7043 44.6428 37.9084 42.5981 42.3628C41.9176 43.8451 41.1952 44.9889 40.4471 45.8165C39.7095 46.6324 38.8642 47.2299 37.9308 47.4295C36.9319 47.6431 35.9837 47.3624 35.2851 46.707C34.631 46.0933 34.2858 45.2443 34.1612 44.4001C34.1297 44.1865 34.0973 43.9433 34.0634 43.6883L34.0624 43.6809C33.8941 42.4165 33.6564 40.6487 33.1065 38.8369C32.7236 37.5756 32.2058 36.3514 31.498 35.2958C30.7901 36.3514 30.2724 37.5756 29.8895 38.837C29.3395 40.6488 29.1019 42.4165 28.9335 43.681L28.9324 43.6892C28.8985 43.9438 28.8662 44.1867 28.8347 44.4001C28.7102 45.2443 28.3649 46.0933 27.7108 46.707C27.0122 47.3624 26.0641 47.6431 25.0651 47.4295C24.1317 47.2299 23.2865 46.6324 22.5489 45.8165C21.8007 44.9889 21.0783 43.8451 20.3979 42.3628C18.3531 37.9084 18.1014 32.7043 17.943 29.4319L17.9388 29.3433C17.9264 29.0876 17.9146 28.8461 17.9029 28.6188L16.4768 29.4787L11.9985 36.9051L7.52014 29.4787L0.09375 25.0004L7.52014 20.5221L11.9985 13.0957L15.6135 19.0905C15.3241 16.5725 15.4948 13.6673 17.1076 11.371C18.6874 9.12161 21.1774 8.51585 23.4863 8.50031C25.7502 8.48507 28.177 9.03182 30.0934 9.46356ZM19.3281 22.2415L23.9032 25.0004L20.7887 26.8785C20.7927 26.9179 20.7965 26.9567 20.8001 26.995C20.8584 27.6122 20.8949 28.3647 20.9338 29.1691L20.9352 29.1982C21.0977 32.5528 21.341 37.2263 23.1243 41.1113C23.7213 42.4117 24.2912 43.2702 24.7743 43.8046C25.2504 44.3313 25.5696 44.4652 25.681 44.4932C25.728 44.4325 25.8208 44.2744 25.8669 43.9622C25.8949 43.7718 25.9246 43.549 25.9598 43.2851L25.963 43.2609C26.1306 42.0021 26.3938 40.0246 27.0188 37.9656C27.6455 35.9012 28.6701 33.6332 30.4413 31.8752L31.498 30.8263L32.5547 31.8752C34.3258 33.6332 35.3505 35.9012 35.9771 37.9655C36.6021 40.0245 36.8654 42.002 37.0329 43.2608L37.0362 43.285C37.0713 43.5489 37.101 43.7718 37.1291 43.9622C37.1751 44.2744 37.268 44.4325 37.315 44.4932C37.4264 44.4652 37.7455 44.3313 38.2217 43.8046C38.7048 43.2702 39.2747 42.4117 39.8716 41.1113C41.655 37.2263 41.8983 32.5528 42.0607 29.1982L42.0621 29.1692C42.1011 28.3647 42.1375 27.6122 42.1959 26.995C42.2491 26.4323 42.3361 25.7481 42.5764 25.2245C42.9046 24.5097 43.7996 22.3227 44.2434 19.8266C44.6992 17.2625 44.6082 14.7679 43.4334 13.0952C42.6601 11.9942 41.3626 11.5129 39.4895 11.5002C37.6019 11.4875 35.4873 11.9565 33.4845 12.4076L33.4738 12.4101C32.8961 12.5402 32.3247 12.6689 31.7926 12.7755L31.498 12.8345L31.2034 12.7755C30.6713 12.6689 30.0999 12.5402 29.5222 12.4101L29.5115 12.4076C27.5087 11.9565 25.394 11.4875 23.5065 11.5002C21.6334 11.5129 20.3358 11.9942 19.5626 13.0952C18.3878 14.7679 18.2967 17.2625 18.7526 19.8266C18.9049 20.6837 19.1105 21.5044 19.3281 22.2415ZM9.70554 22.7075L11.9985 18.9051L14.2914 22.7075L18.0938 25.0004L14.2914 27.2933L11.9985 31.0957L9.70554 27.2933L5.90318 25.0004L9.70554 22.7075Z" fill="#142C73"></path>
<path d="M9.5 0L11.1928 2.80719L14 4.5L11.1928 6.19281L9.5 9L7.80719 6.19281L5 4.5L7.80719 2.80719L9.5 0Z" fill="#142C73"></path>
</svg>