<svg class="theme-icon" width="48" height="48" viewBox="0 0 48 48" fill="none" xmlns="http://www.w3.org/2000/svg">
<path fill-rule="evenodd" clip-rule="evenodd" d="M32.2465 33.6214C32.015 33.9277 31.8163 34.2594 31.6557 34.6114C31.3542 35.272 31.1865 36.0042 31.1865 36.7748C31.1865 39.7016 33.6049 42.0743 36.5882 42.0743C39.5714 42.0743 41.9898 39.7016 41.9898 36.7748C41.9898 33.848 39.5714 31.4754 36.5882 31.4754C35.7873 31.4754 35.0271 31.6464 34.3435 31.9532C33.9717 32.1201 33.6227 32.3271 33.302 32.5686C32.9023 32.8696 32.5467 33.2242 32.2465 33.6214ZM36.5882 39.0391C37.9074 39.0391 38.926 37.9977 38.926 36.7748C38.926 35.552 37.9074 34.5105 36.5882 34.5105C35.269 34.5105 34.2504 35.552 34.2504 36.7748C34.2504 37.9977 35.269 39.0391 36.5882 39.0391Z" fill="#142C73"></path>
<path fill-rule="evenodd" clip-rule="evenodd" d="M15.7535 33.3967C15.985 33.703 16.1837 34.0346 16.3443 34.3866C16.6458 35.0472 16.8135 35.7794 16.8135 36.5501C16.8135 39.4769 14.3951 41.8495 11.4118 41.8495C8.42858 41.8495 6.01018 39.4769 6.01018 36.5501C6.01018 33.6233 8.42858 31.2506 11.4118 31.2506C12.2127 31.2506 12.9729 31.4216 13.6565 31.7285C14.0283 31.8953 14.3773 32.1023 14.698 32.3438C15.0977 32.6448 15.4533 32.9994 15.7535 33.3967ZM11.4118 38.8144C10.0926 38.8144 9.07401 37.7729 9.07401 36.5501C9.07401 35.3272 10.0926 34.2858 11.4118 34.2858C12.731 34.2858 13.7496 35.3272 13.7496 36.5501C13.7496 37.7729 12.731 38.8144 11.4118 38.8144Z" fill="#142C73"></path>
<path fill-rule="evenodd" clip-rule="evenodd" d="M40.1464 0L23.8901 15.9488L7.85359 0.22477L5.69766 2.33991C2.18589 5.78523 2.18588 11.3835 5.69766 14.8288L15.369 24.3086L14.0299 25.6224C13.1874 25.4276 12.3105 25.3249 11.4118 25.3249C5.13731 25.3249 0 30.3229 0 36.5501C0 42.7772 5.13731 47.7752 11.4118 47.7752C17.6863 47.7752 22.8236 42.7772 22.8236 36.5501C22.8236 35.6761 22.7216 34.8235 22.5282 34.0041L23.8854 32.6725L25.4718 34.2289C25.2784 35.0483 25.1764 35.9009 25.1764 36.7748C25.1764 43.002 30.3137 48 36.5882 48C42.8627 48 48 43.002 48 36.7748C48 30.5477 42.8627 25.5497 36.5882 25.5497C35.6895 25.5497 34.8126 25.6524 33.9701 25.8471L32.4063 24.3129L42.3023 14.6041C45.8141 11.1587 45.8141 5.56046 42.3023 2.11514L40.1464 0ZM7.85359 4.49645L21.713 18.0847L17.546 22.1727L7.85359 12.6723C6.35028 11.1974 5.82902 9.12394 6.28982 7.23394C6.52596 6.26538 7.02002 5.345 7.77198 4.57808C7.79886 4.55067 7.82606 4.52346 7.85359 4.49645ZM28.9801 33.399L26.0625 30.5367L30.2292 26.4487L33.1467 29.3109C34.196 28.8445 35.3612 28.5848 36.5882 28.5848C41.1986 28.5848 44.9362 32.2516 44.9362 36.7748C44.9362 41.2981 41.1986 44.9649 36.5882 44.9649C31.9777 44.9649 28.2402 41.2981 28.2402 36.7748C28.2402 35.5713 28.5048 34.4284 28.9801 33.399ZM40.1464 4.27168C40.1739 4.29869 40.2011 4.3259 40.228 4.35331C40.98 5.12023 41.474 6.04061 41.7102 7.00917C42.171 8.89917 41.6497 10.9727 40.1464 12.4475L24.1847 28.1073L20.0381 23.9995L40.1464 4.27168ZM17.8611 26.1353L14.8533 29.0862C13.804 28.6197 12.6388 28.36 11.4118 28.36C6.80136 28.36 3.06383 32.0268 3.06383 36.5501C3.06383 41.0733 6.80136 44.7401 11.4118 44.7401C16.0223 44.7401 19.7598 41.0733 19.7598 36.5501C19.7598 35.3465 19.4952 34.2036 19.0199 33.1743L22.0077 30.243L17.8611 26.1353Z" fill="#142C73"></path>
</svg>