<svg class="theme-icon" width="20" height="20" viewBox="0 0 20 20" fill="none" xmlns="http://www.w3.org/2000/svg">
<path d="M15 0H13V2H15V0Z" fill="#142C73"></path>
<path d="M11 3H9V5H11V3Z" fill="#142C73"></path>
<path fill-rule="evenodd" clip-rule="evenodd" d="M12.0833 8.49935C14.1059 8.49935 15.7704 10.0325 15.9782 12H16.1366C17.1335 12 17.9783 12.7342 18.1171 13.7215L18.7188 18H20V20H0V18H1.28125L1.88292 13.7215C2.02175 12.7342 2.86647 12 3.86343 12H4C4 9.60677 5.9401 7.66602 8.33333 7.66602C9.36792 7.66602 10.3185 8.0294 11.0631 8.63382C11.389 8.54606 11.7312 8.49935 12.0833 8.49935ZM6 11.9993C6 10.7107 7.04467 9.66602 8.33333 9.66602C9.0267 9.66602 9.64844 9.96719 10.0773 10.4491L10.5777 11.0115L11.2565 10.6861C11.5056 10.5667 11.7852 10.4993 12.0833 10.4993C12.999 10.4993 13.7647 11.1415 13.9547 12L6 11.9993ZM3.86343 14H16.1366L16.6991 18H3.30093L3.86343 14Z" fill="#142C73"></path>
<path d="M14 7V5H16V7H14Z" fill="#142C73"></path>
</svg>