<svg class="theme-icon" width="48" height="48" viewBox="0 0 48 48" fill="none" xmlns="http://www.w3.org/2000/svg">
<path fill-rule="evenodd" clip-rule="evenodd" d="M7 18C7.89221 18 8.73894 17.8053 9.5 17.456V20.5729L2.5 24.0729V30H5.5V25.9271L12.5 22.4271V21.1347C12.8084 21.6545 13.1423 22.1576 13.5 22.6422V26.9451L10.5 30.4451V36H13.5V31.5549L16.5 28.0549V25.8193C17.2803 26.4679 18.1164 27.0523 19 27.5643V32.5756L23.5 37.5756V43H26.5V36.4244L22 31.4244V28.9532C23.6179 29.5289 25.3424 29.8819 27.1359 29.9751L33 37.5147V43H36V36.4853L30.8005 29.8003C32.12 29.6036 33.3928 29.2651 34.6029 28.8011L42.5 37.5756V43H45.5V36.4244L37.41 27.4355C41.955 24.716 45.2004 20.0664 46 14.6268C40.1451 8.18287 30.7035 4 20.0531 4C17.0714 4 14.1844 4.32786 11.4443 4.9414C11.1272 5.6806 10.8584 6.44521 10.6419 7.23129C9.632 6.45889 8.36959 6 7 6C3.68629 6 1 8.68629 1 12C1 15.3137 3.68629 18 7 18ZM13.6733 7.55403C13.236 8.9564 13 10.4488 13 12C13 20.2693 19.7435 27 28.0957 27C35.1982 27 41.1435 22.1283 42.758 15.5854C40.0446 12.9346 36.581 10.7441 32.5987 9.23922C34.1323 12.1554 35.0001 15.4764 35.0001 19C35.0001 20.0186 34.9276 21.0202 34.7875 22H31.7512C31.9149 21.0244 32.0001 20.0221 32.0001 19C32.0001 14.8152 30.572 10.9639 28.1766 7.90698C26.3606 7.49083 24.4676 7.2099 22.5145 7.0809C24.1005 10.035 25.0001 13.4124 25.0001 17C25.0001 18.723 24.7926 20.3976 24.4012 22H21.2966C21.7547 20.4125 22.0001 18.7349 22.0001 17C22.0001 13.3063 20.8876 9.8725 18.9793 7.01535C17.1613 7.06742 15.3879 7.2511 13.6733 7.55403ZM7 15C8.65685 15 10 13.6569 10 12C10 10.3431 8.65685 9 7 9C5.34315 9 4 10.3431 4 12C4 13.6569 5.34315 15 7 15Z" fill="#142C73"></path>
</svg>