<svg width="48" height="48" viewBox="0 0 48 48" fill="none" xmlns="http://www.w3.org/2000/svg"> <path fill-rule="evenodd" clip-rule="evenodd" d="M5 29C2.23858 29 0 31.2386 0 34V38H3L5.0883 44.2649C5.63276 45.8983 7.16132 47 8.88304 47H39.117C40.8387 47 42.3672 45.8983 42.9117 44.2649L45 38H48V34C48 31.2386 45.7614 29 43 29H5ZM43 32C44.1046 32 45 32.8954 45 34V35H3V34C3 32.8954 3.89543 32 5 32H43ZM6.16228 38L7.93435 43.3162C8.07047 43.7246 8.45261 44 8.88304 44H39.117C39.5474 44 39.9295 43.7246 40.0656 43.3162L41.8377 38H6.16228Z" fill="#142C73"></path> <path d="M21.9609 13.1565C23.0578 10.7659 23.6221 8.02178 21.9257 4H18.4759C20.3227 7.91983 19.7902 10.3495 18.8235 12.4563C18.5635 13.0228 18.2689 13.5715 17.9593 14.1427L17.906 14.241C17.6167 14.7745 17.3148 15.3314 17.0437 15.9044C16.4613 17.1355 16 18.4829 16 20.0812C16 20.3924 16.0125 20.6987 16.0363 21H19.3363C19.3087 20.6999 19.2941 20.3934 19.2941 20.0812C19.2941 18.8078 19.6563 17.7143 20.172 16.6242C20.4202 16.0995 20.6989 15.5854 20.9939 15.0411L21.0407 14.9549C21.3488 14.3864 21.6718 13.7865 21.9609 13.1565Z" fill="#142C73"></path> <path d="M29.9609 13.1565C31.0578 10.7659 31.6221 8.02178 29.9257 4H26.4759C28.3227 7.91983 27.7902 10.3495 26.8235 12.4563C26.5635 13.0228 26.2689 13.5715 25.9593 14.1427L25.906 14.241C25.6167 14.7745 25.3148 15.3314 25.0437 15.9044C24.4613 17.1355 24 18.4829 24 20.0812C24 20.3924 24.0125 20.6987 24.0363 21H27.3363C27.3087 20.6999 27.2941 20.3934 27.2941 20.0812C27.2941 18.8078 27.6563 17.7143 28.172 16.6242C28.4202 16.0995 28.6989 15.5854 28.9939 15.0411L29.0407 14.9549C29.3488 14.3864 29.6718 13.7865 29.9609 13.1565Z" fill="#142C73"></path> </svg>