<svg class="theme-icon" width="48" height="48" viewBox="0 0 48 48" fill="none" xmlns="http://www.w3.org/2000/svg">
<path d="M9.5 8C9.5 6.067 11.067 4.5 13 4.5C14.933 4.5 16.5 6.067 16.5 8H19.5C19.5 4.41015 16.5899 1.5 13 1.5C9.41015 1.5 6.5 4.41015 6.5 8H9.5Z" fill="#142C73"></path>
<path fill-rule="evenodd" clip-rule="evenodd" d="M21.9732 21.2159L14.7573 14H33.2426L26.0268 21.2159C27.2832 24.9085 30.6406 27.5 34.5 27.5C39.4056 27.5 43.5 23.3132 43.5 18H46.5C46.5 27.6088 40.4768 35.8107 32 39.0362V40C32 44.4183 28.4183 48 24 48C19.5817 48 16 44.4183 16 40V39.0362C7.52322 35.8107 1.5 27.6088 1.5 18H4.5C4.5 23.3132 8.59443 27.5 13.5 27.5C17.3594 27.5 20.7168 24.9086 21.9732 21.2159ZM29 29.1156V40C29 42.7614 26.7614 45 24 45C21.2386 45 19 42.7614 19 40V29.1156C20.334 28.3979 21.5191 27.4275 22.5 26.2678V36H25.5V26.2678C26.4809 27.4275 27.666 28.3979 29 29.1156ZM25 18L26 17H22L22.9999 18H25ZM34.5 30.5C36.5056 30.5 38.3867 29.9914 40.038 29.0951C38.0276 31.9957 35.2505 34.3246 32 35.7887V30.2297C32.805 30.4067 33.6411 30.5 34.5 30.5ZM7.96201 29.0951C9.97241 31.9957 12.7495 34.3246 16 35.7887V30.2297C15.195 30.4067 14.3589 30.5 13.5 30.5C11.4944 30.5 9.61326 29.9914 7.96201 29.0951Z" fill="#142C73"></path>
<path d="M32.5 8C32.5 6.067 34.067 4.5 36 4.5C37.933 4.5 39.5 6.067 39.5 8H42.5C42.5 4.41015 39.5899 1.5 36 1.5C32.4101 1.5 29.5 4.41015 29.5 8H32.5Z" fill="#142C73"></path>
<path d="M13.5 25C14.3284 25 15 24.3284 15 23.5C15 22.6716 14.3284 22 13.5 22C12.6716 22 12 22.6716 12 23.5C12 24.3284 12.6716 25 13.5 25Z" fill="#142C73"></path>
<path d="M34.5 25C35.3284 25 36 24.3284 36 23.5C36 22.6716 35.3284 22 34.5 22C33.6716 22 33 22.6716 33 23.5C33 24.3284 33.6716 25 34.5 25Z" fill="#142C73"></path>
<path d="M9.5 21C10.3284 21 11 20.3284 11 19.5C11 18.6716 10.3284 18 9.5 18C8.67157 18 8 18.6716 8 19.5C8 20.3284 8.67157 21 9.5 21Z" fill="#142C73"></path>
<path d="M38.5 21C39.3284 21 40 20.3284 40 19.5C40 18.6716 39.3284 18 38.5 18C37.6716 18 37 18.6716 37 19.5C37 20.3284 37.6716 21 38.5 21Z" fill="#142C73"></path>
</svg>