<svg class="theme-icon" width="48" height="48" viewBox="0 0 48 48" fill="none" xmlns="http://www.w3.org/2000/svg">
    <path d="M18 0H48V3H35V10H32V3H30V10H27V3H25V10H22V3H20V10H17V3.17071C15.8348 3.58254 15 4.69378 15 6V10H12V6C12 2.68629 14.6863 0 18 0Z" fill="#142C73"></path>
    <path d="M18 29C19.1046 29 20 28.1046 20 27C20 25.8954 19.1046 25 18 25C16.8954 25 16 25.8954 16 27C16 28.1046 16.8954 29 18 29Z" fill="#142C73"></path>
    <path d="M32 27C32 28.1046 31.1046 29 30 29C28.8954 29 28 28.1046 28 27C28 25.8954 28.8954 25 30 25C31.1046 25 32 25.8954 32 27Z" fill="#142C73"></path>
    <path fill-rule="evenodd" clip-rule="evenodd" d="M14.4905 19.1229L7.43154 12C6.70171 12.7364 6.08832 13.5459 5.59132 14.405C5.41108 14.7166 5.24615 15.0347 5.09652 15.3582L5.07395 15.4075C3.07829 19.7755 3.86389 25.1189 7.43126 28.7186C7.90894 29.2006 8.4176 29.6322 8.95079 30.0135L8.11396 37.8744C7.38388 41.5677 10.2543 45 14.0729 45H19.416C20.1876 46.7659 21.9497 48 24 48C26.0503 48 27.8124 46.7659 28.584 45H33.9271L34 44.9996C37.7822 44.9563 40.6114 41.5441 39.8861 37.8744L39.0491 30.0135C39.5823 29.6322 40.0909 29.2006 40.5686 28.7186C44.136 25.1189 44.9216 19.7755 42.9259 15.4075L42.9033 15.3582C42.7537 15.0347 42.5888 14.7166 42.4085 14.405C41.9115 13.5459 41.2982 12.7364 40.5683 12L33.5094 19.1229C31.5027 17.7764 29.086 17 26.5135 17H25.7465L25.5427 17.0449V17H22.4577V17.045L22.2536 17H21.4864C18.9139 17 16.4972 17.7764 14.4905 19.1229ZM9.38723 26.4253C6.87884 23.7471 6.34005 19.8554 7.80264 16.6542L7.80608 16.6466L7.80821 16.642L12.2142 21.0879C10.8669 22.5721 9.876 24.3907 9.38723 26.4253ZM38.6126 26.4253C38.1239 24.3907 37.1329 22.572 35.7857 21.0879L40.1917 16.642L40.1938 16.6466L40.1972 16.6542C41.6598 19.8554 41.121 23.7471 38.6126 26.4253ZM22.4577 20.117L21.9269 20H21.4864C16.9807 20 13.1511 23.1117 12.2492 27.3699L11.0829 38.325L11.057 38.4562C10.7041 40.2416 12.09 42 14.0729 42H19V38.5419C18.685 38.3729 18.389 38.1572 18.1226 37.8948C16.6258 36.4223 16.6258 34.0341 18.1226 32.5617L22.4577 28.295V20.117ZM25.5427 20.1169V28.295L29.8778 32.5617C30.6254 33.2983 31 34.2631 31 35.2279C31 36.1934 30.6254 37.1589 29.8778 37.8948C29.6111 38.1572 29.3151 38.3729 29 38.5418V42H33.9187L33.9727 41.9997C35.931 41.9731 37.2933 40.2282 36.943 38.4561L36.9171 38.325L35.7507 27.37C34.8488 23.1117 31.0193 20 26.5135 20H26.0731L25.5427 20.1169ZM26 38.821C25.4362 38.6439 24.9058 38.3352 24.4584 37.8948L24.0002 37.4439L23.5413 37.8948C23.0939 38.3352 22.5636 38.644 22 38.8212V43C22 44.1046 22.8954 45 24 45C25.1046 45 26 44.1046 26 43V38.821ZM20.2265 35.7562C19.9245 35.4591 19.9245 34.9973 20.2265 34.7003L24.0002 30.9861L27.7723 34.6987C27.931 34.8551 28 35.0428 28 35.2279C28 35.4148 27.9303 35.6023 27.7734 35.7567C27.4442 36.0807 26.8919 36.0807 26.5627 35.7567L24.0017 33.2361L21.4369 35.7567C21.2761 35.915 21.0631 36 20.8323 36C20.5998 36 20.3869 35.9142 20.2279 35.7576L20.2265 35.7562Z" fill="#142C73"></path>
</svg>