<svg width="160" height="33" viewBox="0 0 160 33" fill="none" xmlns="http://www.w3.org/2000/svg">
    <path d="M18.4776 12.3463C19.4825 14.7729 20 17.3736 20 20C17.3737 20 14.7727 19.4827 12.3463 18.4776C9.91985 17.4725 7.7151 15.9993 5.85785 14.1421C4.00061 12.285 2.52739 10.0802 1.52242 7.65368C0.517451 5.22715 0 2.62645 0 0C2.62632 0 5.22727 0.517324 7.65371 1.52242C10.0802 2.52749 12.2849 4.0007 14.1421 5.85785C15.9994 7.71503 17.4726 9.91981 18.4776 12.3463Z" fill="url(#paint0_linear_4400_6106)"></path>
    <path d="M31.5224 12.3463C30.5175 14.7729 30 17.3736 30 20C32.6263 20 35.2273 19.4827 37.6537 18.4776C40.0802 17.4725 42.2849 15.9993 44.1421 14.1421C45.9994 12.285 47.4726 10.0802 48.4776 7.65368C49.4825 5.22715 50 2.62645 50 0C47.3737 0 44.7727 0.517324 42.3463 1.52242C39.9198 2.52749 37.7151 4.0007 35.8579 5.85785C34.0006 7.71503 32.5274 9.91981 31.5224 12.3463Z" fill="url(#paint1_linear_4400_6106)"></path>
    <path d="M40 20C40 25.5228 35.5228 30 30 30H20C14.4772 30 10 25.5228 10 20C10 14.4772 14.4772 10 20 10C21.8214 10 23.5291 10.487 25 11.3378C26.4709 10.487 28.1786 10 30 10C35.5228 10 40 14.4772 40 20Z" fill="url(#paint2_linear_4400_6106)"></path>
    <path d="M43 20C43 27.1797 37.1797 33 30 33H19V32.9621C12.2876 32.4515 7 26.8432 7 20C7 12.8203 12.8203 7 20 7C21.7718 7 23.4608 7.35446 25 7.99633C26.5392 7.35446 28.2282 7 30 7C37.1797 7 43 12.8203 43 20Z" fill="url(#paint3_linear_4400_6106)"></path>
    <path fill-rule="evenodd" clip-rule="evenodd" d="M30 29H20C15.0294 29 11 24.9706 11 20C11 15.0294 15.0294 11 20 11C21.8495 11 23.5703 11.5593 25 12.5159C26.4297 11.5593 28.1505 11 30 11C34.9706 11 39 15.0294 39 20C39 24.9706 34.9706 29 30 29Z" fill="white"></path>
    <path d="M30 27H20C16.134 27 13 23.866 13 20C13 16.134 16.134 13 20 13C21.9587 13 23.7295 13.8045 25 15.101C26.2705 13.8045 28.0413 13 30 13C33.866 13 37 16.134 37 20C37 23.866 33.866 27 30 27Z" fill="url(#paint4_linear_4400_6106)"></path>
    <path d="M18 20C18 21.1046 18.8954 22 20 22C21.1046 22 22 21.1046 22 20C22 18.8954 21.1046 18 20 18C18.8954 18 18 18.8954 18 20Z" fill="#142C73"></path>
    <path d="M28 20C28 21.1046 28.8954 22 30 22C31.1046 22 32 21.1046 32 20C32 18.8954 31.1046 18 30 18C28.8954 18 28 18.8954 28 20Z" fill="#142C73"></path>
    <path d="M80.8011 28.4758H75.5119V19.5636C75.5119 17.27 74.7486 16.1232 73.222 16.1232C72.362 16.1232 71.6955 16.4727 71.2225 17.1717C70.7709 17.8488 70.5452 18.6789 70.5452 19.6619V28.4758H65.2559V19.1704C65.2559 17.1389 64.4927 16.1232 62.9661 16.1232C62.1491 16.1232 61.504 16.4618 61.031 17.1389C60.558 17.7942 60.3215 18.6243 60.3215 19.6291V28.4758H55V12.1586H60.128V14.4194H60.1925C60.601 13.6549 61.2245 13.0105 62.0631 12.4862C62.9016 11.962 63.8799 11.6999 64.9979 11.6999C67.277 11.6999 68.8896 12.6282 69.8356 14.4849C70.9967 12.6282 72.706 11.6999 74.9636 11.6999C76.3397 11.6999 77.4792 12.0603 78.3823 12.7811C79.3068 13.4801 79.9411 14.3102 80.2851 15.2713C80.6291 16.2324 80.8011 17.27 80.8011 18.384V28.4758Z" fill="#142C73"></path>
    <path d="M90.5355 6.94889C90.5355 7.77894 90.2345 8.47794 89.6325 9.04587C89.0519 9.61381 88.3424 9.89777 87.5039 9.89777C86.6653 9.89777 85.9451 9.61381 85.343 9.04587C84.7625 8.4561 84.4722 7.7571 84.4722 6.94889C84.4722 6.16252 84.7625 5.47444 85.343 4.88467C85.9451 4.29489 86.6653 4 87.5039 4C88.3424 4 89.0519 4.29489 89.6325 4.88467C90.2345 5.4526 90.5355 6.14067 90.5355 6.94889ZM90.1485 28.4758H84.8593V12.1586H90.1485V28.4758Z" fill="#142C73"></path>
    <path d="M110.206 28.4758H104.884V19.5636C104.884 17.27 104.089 16.1232 102.498 16.1232C101.594 16.1232 100.896 16.4618 100.401 17.1389C99.9066 17.8161 99.6594 18.6461 99.6594 19.6291V28.4758H94.3379V12.1586H99.4659V14.4194H99.5304C99.9174 13.6549 100.541 13.0105 101.401 12.4862C102.282 11.962 103.261 11.6999 104.336 11.6999C106.335 11.6999 107.808 12.3552 108.754 13.6658C109.722 14.9546 110.206 16.5273 110.206 18.384V28.4758Z" fill="#142C73"></path>
    <path d="M119.952 6.94889C119.952 7.77894 119.651 8.47794 119.049 9.04587C118.469 9.61381 117.759 9.89777 116.921 9.89777C116.082 9.89777 115.362 9.61381 114.76 9.04587C114.179 8.4561 113.889 7.7571 113.889 6.94889C113.889 6.16252 114.179 5.47444 114.76 4.88467C115.362 4.29489 116.082 4 116.921 4C117.759 4 118.469 4.29489 119.049 4.88467C119.651 5.4526 119.952 6.14067 119.952 6.94889ZM119.565 28.4758H114.276V12.1586H119.565V28.4758Z" fill="#142C73"></path>
    <path d="M138.203 13.9934C139.923 15.5662 140.783 17.6523 140.783 20.2516C140.783 22.851 139.923 24.9589 138.203 26.5754C136.483 28.1918 134.365 29 131.85 29C129.356 29 127.249 28.1918 125.529 26.5754C123.808 24.9589 122.948 22.851 122.948 20.2516C122.948 17.6523 123.808 15.5662 125.529 13.9934C127.249 12.4207 129.356 11.6343 131.85 11.6343C134.365 11.6343 136.483 12.4207 138.203 13.9934ZM135.688 20.2516C135.688 19.1376 135.344 18.1656 134.656 17.3355C133.968 16.5055 133.032 16.0904 131.85 16.0904C130.667 16.0904 129.743 16.5055 129.076 17.3355C128.41 18.1437 128.076 19.1158 128.076 20.2516C128.076 21.3875 128.41 22.3814 129.076 23.2333C129.764 24.0633 130.7 24.4784 131.882 24.4784C133.065 24.4784 133.989 24.0633 134.656 23.2333C135.344 22.3814 135.688 21.3875 135.688 20.2516Z" fill="#142C73"></path>
    <path d="M160 28.4758H154.679V19.5636C154.679 17.27 153.883 16.1232 152.292 16.1232C151.389 16.1232 150.69 16.4618 150.196 17.1389C149.701 17.8161 149.454 18.6461 149.454 19.6291V28.4758H144.132V12.1586H149.26V14.4194H149.325C149.712 13.6549 150.335 13.0105 151.195 12.4862C152.077 11.962 153.055 11.6999 154.13 11.6999C156.13 11.6999 157.603 12.3552 158.549 13.6658C159.516 14.9546 160 16.5273 160 18.384V28.4758Z" fill="#142C73"></path>
    <defs>
    <linearGradient id="paint0_linear_4400_6106" x1="11.3889" y1="35.3846" x2="11.3889" y2="0" gradientUnits="userSpaceOnUse">
    <stop stop-color="#FF8C1A"></stop>
    <stop offset="1" stop-color="#FFD701"></stop>
    </linearGradient>
    <linearGradient id="paint1_linear_4400_6106" x1="38.6111" y1="35.3846" x2="38.6111" y2="0" gradientUnits="userSpaceOnUse">
    <stop stop-color="#FF8C1A"></stop>
    <stop offset="1" stop-color="#FFD701"></stop>
    </linearGradient>
    <linearGradient id="paint2_linear_4400_6106" x1="26.25" y1="-5.55556" x2="26.25" y2="38.8889" gradientUnits="userSpaceOnUse">
    <stop stop-color="#FF8C1A"></stop>
    <stop offset="1" stop-color="#FFD701"></stop>
    </linearGradient>
    <linearGradient id="paint3_linear_4400_6106" x1="27.5" y1="53" x2="27.5" y2="7" gradientUnits="userSpaceOnUse">
    <stop stop-color="#FF8C1A"></stop>
    <stop offset="1" stop-color="#FFD701"></stop>
    </linearGradient>
    <linearGradient id="paint4_linear_4400_6106" x1="25" y1="13" x2="25" y2="27" gradientUnits="userSpaceOnUse">
    <stop stop-color="#E6EAF5"></stop>
    <stop offset="1" stop-color="white"></stop>
    </linearGradient>
    </defs>
</svg>