<svg class="theme-icon" width="48" height="48" viewBox="0 0 48 48" fill="none" xmlns="http://www.w3.org/2000/svg">
<path d="M16.5 6C17.3284 6 18 5.32843 18 4.5C18 3.67157 17.3284 3 16.5 3C15.6716 3 15 3.67157 15 4.5C15 5.32843 15.6716 6 16.5 6Z" fill="#142C73"></path>
<path fill-rule="evenodd" clip-rule="evenodd" d="M4.5 42C6.98528 42 9 39.9853 9 37.5C9 35.0147 6.98528 33 4.5 33C2.01472 33 0 35.0147 0 37.5C0 39.9853 2.01472 42 4.5 42ZM4.5 39C5.32843 39 6 38.3284 6 37.5C6 36.6716 5.32843 36 4.5 36C3.67157 36 3 36.6716 3 37.5C3 38.3284 3.67157 39 4.5 39Z" fill="#142C73"></path>
<path fill-rule="evenodd" clip-rule="evenodd" d="M40.5 48C42.9853 48 45 45.9853 45 43.5C45 41.0147 42.9853 39 40.5 39C38.0147 39 36 41.0147 36 43.5C36 45.9853 38.0147 48 40.5 48ZM40.5 45C41.3284 45 42 44.3284 42 43.5C42 42.6716 41.3284 42 40.5 42C39.6716 42 39 42.6716 39 43.5C39 44.3284 39.6716 45 40.5 45Z" fill="#142C73"></path>
<path d="M41.5 36C42.3284 36 43 35.3284 43 34.5C43 33.6716 42.3284 33 41.5 33C40.6716 33 40 33.6716 40 34.5C40 35.3284 40.6716 36 41.5 36Z" fill="#142C73"></path>
<path d="M14 46.5C14 47.3284 13.3284 48 12.5 48C11.6716 48 11 47.3284 11 46.5C11 45.6716 11.6716 45 12.5 45C13.3284 45 14 45.6716 14 46.5Z" fill="#142C73"></path>
<path fill-rule="evenodd" clip-rule="evenodd" d="M23.274 13.055C24.1172 10.1348 26.8086 8 30 8C33.866 8 37 11.134 37 15C37 16.4927 36.5316 17.8776 35.7356 19.0136C36.7244 20.4951 37.4284 22.1839 37.7687 24H48V27H37.9909C37.7279 34.2242 31.7884 40 24.5 40C17.2116 40 11.2721 34.2242 11.0091 27H0V24H11.2312C11.6793 21.6085 12.758 19.4387 14.2867 17.6715C14.101 17.1481 14 16.5851 14 16C14 13.2386 16.2386 11 19 11C20.6714 11 22.149 11.8198 23.0562 13.0764C23.1287 13.0687 23.2013 13.0616 23.274 13.055ZM30 11C27.9143 11 26.1999 12.5975 26.0164 14.6346L25.8931 16.0026L24.5 16C23.8266 16 23.1694 16.0632 22.5335 16.1836L21.3169 16.4139L20.8602 15.263C20.5657 14.5206 19.8418 14 19 14C17.8954 14 17 14.8954 17 16C17 16.4127 17.1234 16.7921 17.335 17.1088L18.025 18.1413L17.1394 19.0119C15.2 20.9185 14 23.5678 14 26.5C14 32.299 18.701 37 24.5 37C30.299 37 35 32.299 35 26.5C35 23.9952 34.1248 21.6988 32.6622 19.8942L31.798 18.8279L32.7835 17.8726C33.5355 17.1438 34 16.1274 34 15C34 12.7909 32.2091 11 30 11Z" fill="#142C73"></path>
</svg>