<svg class="theme-icon" width="20" height="20" viewBox="0 0 20 20" fill="none" xmlns="http://www.w3.org/2000/svg">
<g clip-path="url(#clip0_1894_5811)">
<path fill-rule="evenodd" clip-rule="evenodd" d="M12.9356 18.1395C11.6309 20.6202 8.3691 20.6202 7.06437 18.1395L0.459201 5.5814C-0.845523 3.10077 0.785379 0 3.39483 0H16.6052C19.2146 0 20.8455 3.10077 19.5408 5.58139L12.9356 18.1395ZM16.0089 8L13.9051 12H6.09495L3.99108 8H16.0089ZM17.0609 6L17.7707 4.65038C18.0945 4.03475 18.0577 3.33706 17.7707 2.79147C17.486 2.25022 17.0472 2 16.6052 2H3.39483C2.95276 2 2.51397 2.25022 2.22929 2.79147C1.94233 3.33706 1.90549 4.03475 2.22929 4.65039L2.93914 6H17.0609ZM7.14688 14H12.8531L11.1655 17.2085C10.8542 17.8005 10.3887 18 10 18C9.61131 18 9.14584 17.8005 8.83446 17.2085L7.14688 14Z" fill="#142C73"></path>
</g>
<defs>
<clipPath id="clip0_1894_5811">
<rect width="20" height="20" fill="white"></rect>
</clipPath>
</defs>
</svg>