<svg class="theme-icon" width="48" height="48" viewBox="0 0 48 48" fill="none" xmlns="http://www.w3.org/2000/svg">
    <path fill-rule="evenodd" clip-rule="evenodd" d="M23.6938 2L31.6943 6.17417V2.69141H40.6943V10.8698L47.3877 14.362L46 17.0218L43.6943 15.8188V45.6914H3.69434V15.8183L1.3877 17.0218L0 14.362L23.6938 2ZM37.6943 9.3046L34.6943 7.73939V5.69141H37.6943V9.3046ZM23.6938 5.38377L40.6943 14.2536V42.6914H6.69434V14.2531L23.6938 5.38377ZM28.7658 19.5004C27.0385 19.4926 25.3611 20.0359 24.005 21.0362C22.6483 20.0274 20.9631 19.4831 19.2297 19.5004C15.0588 19.5046 11.5 22.6856 11.5 26.8226C11.5 28.6632 12.3527 30.3493 13.4213 31.7585C14.5013 33.1828 15.9112 34.469 17.2788 35.5409C19.8915 37.5886 22.5417 39.002 23.0027 39.2384C23.6192 39.5869 24.3786 39.5871 24.9952 39.2396C25.4463 39.01 28.1006 37.6143 30.7185 35.5722C32.0874 34.5044 33.4988 33.2197 34.58 31.7897C35.6512 30.373 36.5 28.6784 36.5 26.8226C36.5 22.6841 32.9385 19.5023 28.7658 19.5004ZM19.2545 22.5003C20.6785 22.4846 22.0065 23.0707 22.8798 24.0513L23.9927 25.301L25.1137 24.0586C25.9969 23.0797 27.3271 22.4933 28.7545 22.5004H28.762C31.4779 22.5004 33.5 24.5313 33.5 26.8226C33.5 27.7609 33.0609 28.8247 32.187 29.9804C31.3232 31.1228 30.1326 32.2245 28.8733 33.2068C26.8782 34.763 24.8426 35.9189 24.0022 36.3722C23.9598 36.3492 23.9145 36.3243 23.8664 36.2977C23.5598 36.1283 23.1401 35.8893 22.6463 35.5906C21.6557 34.9915 20.3821 34.1615 19.1294 33.1797C17.8689 32.1917 16.6767 31.0866 15.8117 29.9458C14.9352 28.7899 14.5 27.7372 14.5 26.8226C14.5 24.5313 16.5221 22.5004 19.2379 22.5004H19.2462L19.2545 22.5003Z" fill="#142C73"></path>
</svg>