<svg class="theme-icon" width="48" height="48" viewBox="0 0 48 48" fill="none" xmlns="http://www.w3.org/2000/svg">
    <path fill-rule="evenodd" clip-rule="evenodd" d="M10 17H7V5H16V14H10V17ZM10 11H13V8H10V11Z" fill="#142C73"></path>
    <path fill-rule="evenodd" clip-rule="evenodd" d="M5.31579 0C3.48453 0 2 1.46525 2 3.27273V18.7273C2 20.5348 3.48453 22 5.31579 22H10V28.6926L0 32.3023V44H6.20703C6.85996 46.3085 8.98244 48 11.5 48C14.0176 48 16.14 46.3085 16.793 44H31.207C31.86 46.3085 33.9824 48 36.5 48C39.0176 48 41.14 46.3085 41.793 44H48V28.8605L23 24L13 27.6097V22H17.6842C19.5155 22 21 20.5348 21 18.7273V3.27273C21 1.46525 19.5155 0 17.6842 0H5.31579ZM17.6842 3H5.31579C5.10429 3 5 3.15896 5 3.27273V18.7273C5 18.841 5.10429 19 5.31579 19H17.6842C17.8957 19 18 18.841 18 18.7273V3.27273C18 3.15896 17.8957 3 17.6842 3ZM36.5 37C33.9824 37 31.86 38.6915 31.207 41H16.793C16.14 38.6915 14.0176 37 11.5 37C8.98245 37 6.85996 38.6915 6.20703 41H3V35.5H34.8705L37.7073 29.9156L45 31.3334V41H41.793C41.14 38.6915 39.0176 37 36.5 37ZM34.6831 29.3276L23.24 27.1028L8.28818 32.5H33.1295L34.6831 29.3276ZM11.5 45C12.8807 45 14 43.8807 14 42.5C14 41.1193 12.8807 40 11.5 40C10.1193 40 9 41.1193 9 42.5C9 43.8807 10.1193 45 11.5 45ZM36.5 45C37.8807 45 39 43.8807 39 42.5C39 41.1193 37.8807 40 36.5 40C35.1193 40 34 41.1193 34 42.5C34 43.8807 35.1193 45 36.5 45Z" fill="#142C73"></path>
</svg>