<svg class="theme-icon" width="48" height="48" viewBox="0 0 48 48" fill="none" xmlns="http://www.w3.org/2000/svg">
<g clip-path="url(#clip0_5135_6899)">
<path fill-rule="evenodd" clip-rule="evenodd" d="M9.92472 26.015C10.6907 24.9321 11.0713 23.3318 10.7722 21.5979C10.2671 18.6685 8.21978 17.4235 6.15959 17.7757C5.12921 17.9517 4.29141 18.4896 3.74586 19.2607C3.14656 20.1081 2.82839 21.3641 3.09416 22.9052L3.09942 22.9358L3.10405 22.9664C3.30253 24.2786 3.99764 25.5674 4.94758 26.4316C5.87219 27.2727 6.87148 27.5844 7.82681 27.4212C8.57965 27.2926 9.3402 26.8415 9.92472 26.015ZM8.33197 30.3784C4.2473 31.0761 0.739719 27.3947 0.137792 23.4151C-0.242022 21.2126 0.169482 19.122 1.29655 17.5284C2.31636 16.0867 3.86383 15.1244 5.65414 14.8185C6.84871 14.6144 7.99357 14.7151 9.0296 15.0748C9.81161 15.3463 10.5316 15.7653 11.1642 16.3122C11.7095 16.7837 12.1905 17.3508 12.5895 17.9997C13.1348 18.8862 13.5283 19.9264 13.7286 21.088C13.8911 22.0301 13.9158 22.9727 13.8103 23.8793C13.6442 25.3052 13.1558 26.642 12.374 27.7474C11.7966 28.5637 11.0782 29.2192 10.2686 29.6814C9.6666 30.0251 9.01422 30.2618 8.33197 30.3784ZM25.7025 4.58877C25.4272 5.31054 25.2477 6.08893 25.1786 6.90225C24.9925 8.36402 25.193 9.90939 25.7236 11.3006C26.6378 13.6978 28.5319 15.6373 31.1164 15.9031C31.8729 15.9754 32.5942 15.9071 33.2706 15.7223C35.032 15.2411 36.4881 13.9702 37.463 12.3372C38.1772 11.1408 38.6332 9.75005 38.7615 8.33321C39.2088 3.94802 36.6812 0.460975 32.7515 0.0418477C29.486 -0.317454 26.8139 1.67404 25.7025 4.58877ZM22.5703 11.308C23.1197 9.85152 23.2795 8.25095 23.0817 6.72406C23.0778 6.69392 23.0737 6.66381 23.0695 6.63374C22.9721 5.93321 22.7992 5.24916 22.554 4.60274C21.489 1.79577 19.0598 -0.301768 15.5198 0.041754C9.42856 0.663697 7.98713 8.04813 10.9609 12.6201C11.4162 13.3201 11.975 13.9541 12.6364 14.4879C13.2351 14.9707 13.8814 15.3383 14.5572 15.582C15.3901 15.8825 16.2678 15.9949 17.1566 15.9032C19.0375 15.7029 20.7489 14.5608 21.8523 12.7697C22.1399 12.3061 22.3787 11.8158 22.5703 11.308ZM16.8437 12.9195C17.6874 12.8281 18.6205 12.2961 19.298 11.1962L19.303 11.1881C20.3213 9.54671 20.4315 7.24108 19.656 5.43667C18.9419 3.77515 17.6678 2.85026 15.8172 3.027C13.9897 3.21665 12.8517 4.46822 12.541 6.48343C12.211 8.62369 12.9927 10.9198 14.5195 12.1526M16.8437 12.9195C16.0953 12.9955 15.298 12.7799 14.5204 12.1532L16.8437 12.9195ZM34.1691 23.6328C34.4369 26.1697 35.745 28.5471 37.8997 29.683C38.4374 29.9665 39.0279 30.1726 39.6681 30.2847C43.7536 30.9817 47.2594 27.3016 47.8622 23.3213C48.2421 21.1189 47.8305 19.0283 46.7034 17.4347C45.6836 15.993 44.1361 15.0306 42.3459 14.7248C41.3098 14.5479 40.3111 14.6002 39.3884 14.8518C37.6466 15.3268 36.1756 16.5122 35.2346 18.2067C34.7803 19.0248 34.4495 19.9615 34.2714 20.9943C34.1081 21.8631 34.0766 22.7574 34.1691 23.6328ZM41.8409 17.682C39.7796 17.33 37.7329 18.5748 37.2277 21.5041L37.2239 21.5263L37.2198 21.5484C36.9655 22.9013 37.1969 24.3451 37.7943 25.4545C38.3724 26.5282 39.2015 27.1554 40.1788 27.3284C41.1333 27.4892 42.1303 27.1767 43.0524 26.3378C44.0019 25.474 44.6971 24.1854 44.896 22.8721L44.9006 22.8417L44.9058 22.8114C45.1716 21.2704 44.8535 20.0144 44.2541 19.167C43.7086 18.3959 42.8711 17.858 41.8409 17.682ZM31.4129 12.9177C30.5132 12.8216 29.6528 12.2671 28.9868 11.1754C28.303 10.0545 27.9875 8.5936 28.1546 7.28114L28.1625 7.21884L28.1678 7.15627C28.4062 4.35094 30.3877 2.79986 32.4234 3.02387L32.4334 3.02493C34.4249 3.23734 36.0886 4.97384 35.777 8.02883L35.7753 8.04565L35.7738 8.06248C35.6451 9.48266 35.0347 10.8354 34.1767 11.7488C33.3537 12.6251 32.411 13.0098 31.4129 12.9177Z" fill="#142C73"></path>
<path fill-rule="evenodd" clip-rule="evenodd" d="M24.0626 44.9885H24.0642C24.5968 44.9786 25.1237 44.9734 25.6308 44.9684L25.6376 44.9683C27.9486 44.9453 29.7726 44.9163 31.3168 44.5972C32.7457 44.3019 33.6671 43.8069 34.3314 43.0225C34.6999 42.5264 34.9847 41.7872 34.9994 40.6501C34.8871 39.2057 34.0386 36.2257 32.4989 32.9046C31.4281 30.5948 30.1135 28.3189 28.6897 26.5059C26.6756 23.9413 25.0243 23.0274 24.0057 23.0004C22.9159 23.0328 21.1871 24.0294 19.1221 26.7222C18.3183 27.7703 17.548 28.9681 16.8368 30.241C16.3587 31.0969 15.9119 31.9784 15.5037 32.8592C13.9665 36.1758 13.1164 39.1699 13.0009 40.6464C13.0199 41.8668 13.3265 42.5479 13.6445 42.9673C13.989 43.4217 14.5601 43.848 15.5226 44.1964C17.5943 44.9465 20.5576 45.0363 24.0421 44.9888L24.0626 44.9885ZM10 40.5572C10.1199 38.5604 11.1545 35.1087 12.7818 31.5977C13.2197 30.653 13.7005 29.7039 14.2179 28.7778C14.9853 27.4042 15.8333 26.0808 16.7415 24.8966C18.911 22.0676 21.4235 20.0323 24 20C26.4854 20.0214 28.9224 21.9451 31.049 24.653C32.6539 26.6965 34.082 29.1867 35.2207 31.6428C36.8468 35.1503 37.8826 38.5884 38 40.5574C38 42.2959 37.5555 43.7543 36.679 44.8916C34.2101 47.8833 30.1383 47.9237 25.6674 47.9681L25.666 47.9682C25.1461 47.9733 24.6209 47.9786 24.0922 47.9885H24.083C17.2883 48.0812 10.021 47.7829 10 40.5572Z" fill="#142C73"></path>
<path fill-rule="evenodd" clip-rule="evenodd" d="M22.5 40L22.5 30L25.5 30L25.5 40H22.5Z" fill="#142C73"></path>
<path fill-rule="evenodd" clip-rule="evenodd" d="M29 36.5L19 36.5L19 33.5L29 33.5V36.5Z" fill="#142C73"></path>
</g>
<defs>
<clipPath id="clip0_5135_6899">
<rect width="48" height="48" fill="white"></rect>
</clipPath>
</defs>
</svg>