<svg class="theme-icon" width="48" height="48" viewBox="0 0 48 48" fill="none" xmlns="http://www.w3.org/2000/svg">
<path d="M0 48V35.7342C0 31.1472 3.31231 27.3241 7.68297 26.5568C9.35114 22.1918 13.0403 18.833 17.6101 17.6255C18.2296 17.4618 18.8147 17.2589 19.3624 17.0118C19.7826 16.8222 20.1879 16.6065 20.6081 16.3528C22.9925 14.9132 25.4843 12.7412 27.6019 10.593C28.2434 9.94231 28.9599 9.36441 29.7379 8.87357C29.1026 5.58388 29.054 2.2095 29.1496 0H32.1525C32.125 0.584875 32.1085 1.26206 32.1124 2.00171C32.1257 4.50815 32.374 7.73186 33.2255 10.5113C31.8944 10.9622 30.7042 11.7194 29.7384 12.6991C27.5353 14.934 24.844 17.2998 22.1587 18.921C21.6494 19.2285 21.1383 19.5017 20.5961 19.7464C19.8798 20.0696 19.1361 20.3252 18.3765 20.526C14.1448 21.6441 10.8571 25.0915 9.96224 29.4166H9.3C5.82064 29.4166 3 32.2451 3 35.7342V48H0Z" fill="#142C73"></path>
<path d="M37.5383 10.1611C36.3399 6.89861 36.2187 2.53003 36.3575 0H39.3625C39.242 1.93102 39.302 5.07258 39.9236 7.67679C44.6238 9.27845 48 13.7328 48 18.9762C48 22.4022 46.5543 25.4959 44.2474 27.6692C42.9725 28.8702 42.1846 30.5058 42.1846 31.7939C42.1846 40.739 34.9452 48 26.0031 48C20.9007 48 15.4499 46.2227 11.5133 42.6398C11.0472 42.2156 10.6084 41.7614 10.2 41.2802V48H7.2V35.7342C7.2 35.6741 7.20251 35.6146 7.20743 35.5558C7.26859 34.8245 7.70248 34.1994 8.31807 33.8722C8.61108 33.7165 8.94526 33.6283 9.3 33.6283H9.86331C10.2858 36.305 11.618 38.6785 13.5326 40.4211C16.8393 43.4307 21.5356 45 26.0031 45C33.283 45 39.1846 39.0874 39.1846 31.7939C39.1846 29.4606 40.4936 27.0839 42.1903 25.4856C43.9199 23.8561 45 21.5425 45 18.9762C45 14.5389 41.7708 10.8571 37.5383 10.1611Z" fill="#142C73"></path>
<path fill-rule="evenodd" clip-rule="evenodd" d="M26.3024 26.6397C24.8395 28.524 22.8496 29.9406 20.6669 30.777C19.109 31.374 17.3723 32.5502 16.513 34.2872C16.0457 35.2317 15.7807 36.4939 16.2317 37.8292C16.6752 39.1424 17.6461 40.0365 18.6637 40.6098C23.8975 43.5583 30.8807 41.6132 34.5628 36.8704C36.6302 34.2075 37.4404 30.975 36.7702 27.9629C36.4802 26.6597 35.7436 25.5707 34.668 24.8613C33.6459 24.1873 32.5077 23.9767 31.5175 24.002C29.6057 24.0509 27.584 24.9889 26.3024 26.6397ZM33.8418 28.6145C33.3292 26.3106 30.084 26.6608 28.672 28.4795C26.8509 30.8253 24.4 32.5592 21.7404 33.5784C19.4628 34.4511 17.7835 36.6706 20.1362 37.996C23.8843 40.1076 29.2824 38.7799 32.1931 35.0306C33.7751 32.993 34.2968 30.6595 33.8418 28.6145Z" fill="#142C73"></path>
</svg>