<svg class="theme-icon" width="48" height="48" viewBox="0 0 48 48" fill="none" xmlns="http://www.w3.org/2000/svg">
    <path d="M38.5373 13.0809C39.1231 13.6667 39.1231 14.6164 38.5373 15.2022C37.9516 15.788 37.0018 15.788 36.416 15.2022C35.8302 14.6164 35.8302 13.6667 36.416 13.0809C37.0018 12.4951 37.9516 12.4951 38.5373 13.0809Z" fill="#142C73"></path>
    <path d="M35.0018 9.54534C35.5876 10.1311 35.5876 11.0809 35.0018 11.6667C34.416 12.2524 33.4663 12.2524 32.8805 11.6667C32.2947 11.0809 32.2947 10.1311 32.8805 9.54534C33.4663 8.95955 34.416 8.95955 35.0018 9.54534Z" fill="#142C73"></path>
    <path d="M11.6673 32.8799C12.2531 33.4656 12.2531 34.4154 11.6673 35.0012C11.0815 35.587 10.1317 35.587 9.54596 35.0012C8.96017 34.4154 8.96017 33.4656 9.54596 32.8799C10.1317 32.2941 11.0815 32.2941 11.6673 32.8799Z" fill="#142C73"></path>
    <path d="M15.2028 36.4154C15.7886 37.0012 15.7886 37.9509 15.2028 38.5367C14.617 39.1225 13.6673 39.1225 13.0815 38.5367C12.4957 37.9509 12.4957 37.0012 13.0815 36.4154C13.6673 35.8296 14.617 35.8296 15.2028 36.4154Z" fill="#142C73"></path>
    <path d="M36.4153 32.8803C35.8295 33.466 35.8295 34.4158 36.4153 35.0016C37.0011 35.5874 37.9509 35.5874 38.5366 35.0016C39.1224 34.4158 39.1224 33.466 38.5366 32.8803C37.9509 32.2945 37.0011 32.2945 36.4153 32.8803Z" fill="#142C73"></path>
    <path d="M16.6165 15.2027C16.0307 14.617 16.0307 13.6672 16.6165 13.0814C17.2023 12.4956 18.152 12.4956 18.7378 13.0814C19.3236 13.6672 19.3236 14.617 18.7378 15.2027C18.152 15.7885 17.2023 15.7885 16.6165 15.2027Z" fill="#142C73"></path>
    <path d="M32.8802 36.4159C32.2944 37.0017 32.2944 37.9514 32.8802 38.5372C33.466 39.123 34.4157 39.123 35.0015 38.5372C35.5873 37.9514 35.5873 37.0017 35.0015 36.4159C34.4157 35.8301 33.4659 35.8301 32.8802 36.4159Z" fill="#142C73"></path>
    <path d="M13.0804 18.7381C12.4946 18.1524 12.4946 17.2026 13.0804 16.6168C13.6661 16.031 14.6159 16.031 15.2017 16.6168C15.7875 17.2026 15.7875 18.1524 15.2017 18.7381C14.6159 19.3239 13.6661 19.3239 13.0804 18.7381Z" fill="#142C73"></path>
    <path d="M29.344 32.8803C28.7582 33.466 28.7582 34.4158 29.344 35.0016C29.9298 35.5874 30.8796 35.5874 31.4654 35.0016C32.0511 34.4158 32.0511 33.466 31.4654 32.8803C30.8796 32.2945 29.9298 32.2945 29.344 32.8803Z" fill="#142C73"></path>
    <path d="M9.54521 15.2027C8.95942 14.617 8.95942 13.6672 9.54521 13.0814C10.131 12.4956 11.0807 12.4956 11.6665 13.0814C12.2523 13.6672 12.2523 14.617 11.6665 15.2027C11.0807 15.7885 10.131 15.7885 9.54521 15.2027Z" fill="#142C73"></path>
    <path d="M32.8802 29.3449C32.2944 29.9306 32.2944 30.8804 32.8802 31.4662C33.466 32.052 34.4157 32.052 35.0015 31.4662C35.5873 30.8804 35.5873 29.9306 35.0015 29.3449C34.4157 28.7591 33.466 28.7591 32.8802 29.3449Z" fill="#142C73"></path>
    <path d="M13.0804 11.6671C12.4946 11.0813 12.4946 10.1316 13.0804 9.54578C13.6661 8.96 14.6159 8.96 15.2017 9.54578C15.7875 10.1316 15.7875 11.0813 15.2017 11.6671C14.6159 12.2529 13.6661 12.2529 13.0804 11.6671Z" fill="#142C73"></path>
    <path fill-rule="evenodd" clip-rule="evenodd" d="M31.1127 2.82782L24.0411 9.8994L16.97 2.82822C15.4079 1.26612 12.8752 1.26612 11.3131 2.82822L2.82782 11.3135C1.26573 12.8756 1.26573 15.4083 2.82782 16.9704L9.899 24.0415L2.82844 31.1121C1.26635 32.6742 1.26635 35.2068 2.82845 36.7689L11.3137 45.2542C12.8758 46.8163 15.4085 46.8163 16.9706 45.2542L24.0411 38.1837L31.1121 45.2546C32.6742 46.8167 35.2068 46.8167 36.7689 45.2546L45.2542 36.7693C46.8163 35.2072 46.8163 32.6746 45.2542 31.1125L38.1833 24.0415L45.2548 16.97C46.8169 15.4079 46.8169 12.8752 45.2548 11.3131L36.7696 2.82782C35.2075 1.26573 32.6748 1.26573 31.1127 2.82782ZM36.0619 21.9202L43.1335 14.8486C43.5241 14.4581 43.5241 13.8249 43.1335 13.4344L34.6483 4.94915C34.2577 4.55862 33.6246 4.55862 33.234 4.94914L26.1625 12.0207L36.0619 21.9202ZM21.9198 36.0623L14.8493 43.1329C14.4587 43.5234 13.8256 43.5234 13.435 43.1329L4.94977 34.6476C4.55924 34.2571 4.55924 33.6239 4.94977 33.2334L12.0203 26.1629L21.9198 36.0623ZM43.1329 33.2338L14.8486 4.94954C14.4581 4.55902 13.8249 4.55901 13.4344 4.94954L4.94914 13.4348C4.55862 13.8253 4.55862 14.4585 4.94914 14.849L33.2334 43.1333C33.6239 43.5238 34.2571 43.5238 34.6476 43.1333L43.1329 34.648C43.5234 34.2575 43.5234 33.6243 43.1329 33.2338Z" fill="#142C73"></path>
</svg>  