<svg class="theme-icon" width="48" height="48" viewBox="0 0 48 48" fill="none" xmlns="http://www.w3.org/2000/svg">
<path fill-rule="evenodd" clip-rule="evenodd" d="M7.84496 25.4733L5.70543 27.626L9.27132 31.2137L4.27907 36.2366L2.13953 34.084L0 36.2366L10.6977 47L12.8372 44.8473L10.6977 42.6947L15.6899 37.6718L18.5426 40.542L20.6822 38.3893L19.2558 36.9542L37.0853 19.0153L35.6589 17.5802L39.938 13.2748L37.4419 10.7634L46 2.15267L43.8605 0L35.3023 8.61069L33.5194 6.81679L29.2403 11.1221L27.814 9.68702L9.9845 27.626L7.84496 25.4733ZM8.55814 40.542L12.8372 36.2366L10.6977 34.084L6.4186 38.3893L8.55814 40.542ZM12.124 29.7786L17.1163 34.8015L32.8062 19.0153L27.814 13.9924L25.6744 16.145L27.814 18.2977L25.6744 20.4504L23.5349 18.2977L21.3953 20.4504L23.5349 22.6031L21.3953 24.7557L19.2558 22.6031L17.1163 24.7557L19.2558 26.9084L17.1163 29.0611L14.9767 26.9084L12.124 29.7786ZM35.6589 13.2748L33.5194 15.4275L31.3798 13.2748L33.5194 11.1221L35.6589 13.2748Z" fill="#142C73"></path>
<path fill-rule="evenodd" clip-rule="evenodd" d="M48 28H35L37.3636 33L35 38V48H48V38L45.6364 33L48 28ZM38.3183 38L40.682 33L39.7365 31H43.2635L42.318 33L44.6817 38H38.3183ZM38 41V45H45V41H38Z" fill="#142C73"></path>
</svg>