<svg width="48" height="48" viewBox="0 0 48 48" fill="none" xmlns="http://www.w3.org/2000/svg"> <path fill-rule="evenodd" clip-rule="evenodd" d="M13.4346 32.4424L4.9375 40.9395L7.05882 43.0608L15.1601 34.9595C17.3493 37.4389 20.4923 39.0001 23.9982 39.0001C30.6514 39.0001 35.9982 33.3771 35.9982 26.5267C35.9982 23.4101 34.8546 20.2065 33.0568 17.0628L43.0588 7.06077L40.9375 4.93945L31.4173 14.4597C29.454 11.5945 27.0476 8.81559 24.5847 6.23901C24.4514 6.10703 24.2648 6.01451 24.0647 6.00135C23.8248 5.9882 23.5715 6.08057 23.4114 6.23901C17.5448 12.3768 11.9982 19.6629 11.9982 26.5267C11.9982 28.6623 12.5178 30.6785 13.4346 32.4424ZM17.286 32.8335C18.9493 34.7869 21.3634 36.0001 23.9982 36.0001C28.8762 36.0001 32.9982 31.8412 32.9982 26.5267C32.9982 24.3192 32.2453 21.8819 30.8497 19.2699L17.286 32.8335ZM29.2565 16.6205L15.6925 30.1845C15.2462 29.0643 14.9982 27.8302 14.9982 26.5267C14.9982 23.8777 16.0823 20.8979 18.0601 17.6823C19.6559 15.088 21.7345 12.4985 23.9981 10.0078C25.9528 12.1586 27.7695 14.3829 29.2565 16.6205Z" fill="#142C73"></path> </svg>